<svg xmlns="http://www.w3.org/2000/svg" version="1.1" xmlns:xlink="http://www.w3.org/1999/xlink" width="1000" height="1000"><style>
    #light-icon {
      display: inline;
    }
    #dark-icon {
      display: none;
    }

    @media (prefers-color-scheme: dark) {
      #light-icon {
        display: none;
      }
      #dark-icon {
        display: inline;
      }
    }
  </style><g id="light-icon"><svg xmlns="http://www.w3.org/2000/svg" version="1.1" xmlns:xlink="http://www.w3.org/1999/xlink" width="1000" height="1000"><g clip-path="url(#SvgjsClipPath1066)"><rect width="1000" height="1000" fill="#ffffff"></rect><g transform="matrix(2,0,0,2,0,0)"><svg xmlns="http://www.w3.org/2000/svg" width="500" height="500" viewBox="0 0 500 500" fill="none"><rect width="500" height="500" fill="white"></rect><path d="M391.422 285.355L285.355 391.422L250 356.066L320.711 285.355L250.001 214.644L285.356 179.289L391.422 285.355Z" fill="black"></path><path d="M250.001 143.934L179.29 214.644L250.001 285.355L214.645 320.71L108.579 214.645L214.645 108.578L250.001 143.934Z" fill="black"></path></svg></g></g><defs><clipPath id="SvgjsClipPath1066"><rect width="1000" height="1000" x="0" y="0" rx="350" ry="350"></rect></clipPath></defs></svg></g><g id="dark-icon"><svg xmlns="http://www.w3.org/2000/svg" version="1.1" xmlns:xlink="http://www.w3.org/1999/xlink" width="1000" height="1000"><g clip-path="url(#SvgjsClipPath1067)"><rect width="1000" height="1000" fill="#000000"></rect><g transform="matrix(2,0,0,2,0,0)"><svg xmlns="http://www.w3.org/2000/svg" width="500" height="500" viewBox="0 0 500 500" fill="none"><rect width="500" height="500" fill="black"></rect><path d="M391.422 285.355L285.355 391.422L250 356.066L320.711 285.355L250.001 214.644L285.356 179.289L391.422 285.355Z" fill="white"></path><path d="M250.001 143.934L179.29 214.644L250.001 285.355L214.645 320.71L108.579 214.645L214.645 108.578L250.001 143.934Z" fill="white"></path></svg></g></g><defs><clipPath id="SvgjsClipPath1067"><rect width="1000" height="1000" x="0" y="0" rx="350" ry="350"></rect></clipPath></defs></svg></g></svg>