<?xml version="1.0" encoding="UTF-8" standalone="no"?>
<svg version="1.1" id="svg1" width="3987.5447" height="2078.4185" viewBox="0 0 3987.5447 2078.4184" xmlns:xlink="http://www.w3.org/1999/xlink" xmlns="http://www.w3.org/2000/svg" xmlns:svg="http://www.w3.org/2000/svg">
  <defs id="defs1">
    <linearGradient id="linearGradient1">
      <stop style="stop-color:var(--color-ctp-surface1);stop-opacity:1;" offset="0" id="stop1" />
      <stop style="stop-color:var(--color-ctp-surface1);stop-opacity:1;" offset="0.44" id="stop3" />
      <stop style="stop-color:var(--color-ctp-crust);stop-opacity:1;" offset="0.60" id="stop2" />
    </linearGradient>
    <linearGradient xlink:href="#linearGradient1" id="linearGradient2" x1="2552.5574" y1="-595.896" x2="2552.5574" y2="3391.6484" gradientUnits="userSpaceOnUse" gradientTransform="translate(558.78496,358.66704)" />
  </defs>
  <g id="g1" transform="translate(-558.78497,-358.66703)">
    <path style="fill:url(#linearGradient2);" d="m 2606.0001,2436.419 c -13.3801,-3.0361 -29.2849,-13.4849 -33.7651,-22.1821 -1.5781,-3.0636 -4.1069,-7.1039 -5.6195,-8.9784 -2.153,-2.6682 -3.1348,-7.0113 -4.5212,-20 -1.8122,-16.9784 -4.504,-26.0135 -10.6512,-35.7514 -1.7995,-2.8504 -4.2108,-7.2056 -5.3586,-9.6782 -1.1477,-2.4725 -3.7478,-7.1955 -5.778,-10.4955 -9.5846,-15.5799 -9.1732,-35.0086 1.0452,-49.359 1.4566,-2.0456 2.6456,-5.7267 2.6422,-8.1802 0,-2.4534 1.0134,-9.3804 2.2596,-15.3932 l 2.2657,-10.9324 -3.2567,-6.9533 c -4.2565,-9.0878 -4.6731,-27.2513 -0.7886,-34.3836 2.8317,-5.1993 9.1846,-11.4363 14.5262,-14.2611 4.6307,-2.4488 4.5924,-3.4063 -0.3334,-8.3321 -5.2357,-5.2357 -5.1047,-8.9813 0.7767,-22.2051 7.3158,-16.4488 8.5883,-20.4191 10.6832,-33.3333 1.0707,-6.6 3.3945,-18 5.1641,-25.3334 1.7696,-7.3333 3.597,-15.8307 4.0609,-18.8832 0.8396,-5.5246 0.808,-5.5761 -6.9207,-11.3036 -5.9172,-4.385 -31.9365,-27.1298 -36.4308,-31.8461 -2.0579,-2.1595 -27.0204,-21.4983 -32.6667,-25.3074 -3.6667,-2.4736 -8.7667,-6.1712 -11.3333,-8.2169 -6.2437,-4.9764 -40.7379,-30.7364 -52.5588,-39.2504 -9.9268,-7.1499 -18.7636,-18.1126 -22.8672,-28.3683 -1.9683,-4.9193 -2.1561,-8.8777 -1.4195,-29.9135 0.467,-13.3341 1.4597,-27.8439 2.206,-32.2439 2.0451,-12.0565 4.7197,-39.6134 9.3176,-96 1.5694,-19.2475 4.4155,-47.3125 7.3746,-72.7204 1.071,-9.1963 1.9473,-20.0568 1.9473,-24.1344 0,-7.7219 1.2683,-12.8124 5.4345,-21.8119 4.8084,-10.3868 9.2321,-28.4692 9.2321,-37.7375 0,-9.0009 -0.022,-9.0537 -6.6666,-16.1314 -3.6667,-3.9055 -6.6667,-7.8826 -6.6667,-8.8381 0,-0.9555 -1.533,-2.8539 -3.4066,-4.2188 -3.2049,-2.3346 -3.3253,-2.8347 -2.0326,-8.4445 0.7557,-3.2797 1.3929,-9.263 1.4159,-13.2963 0.024,-4.2037 1.4605,-11.5133 3.3659,-17.1278 1.8283,-5.3869 3.3241,-10.9015 3.3241,-12.2546 0,-1.3532 0.5143,-2.7781 1.1428,-3.1666 2.4004,-1.4835 4.14,-17.3208 5.5051,-50.1177 1.3246,-31.8225 2.9009,-46.8458 5.2464,-50 0.9772,-1.3143 3.3372,-11.5548 4.7627,-20.6667 1.2622,-8.0683 0.674,-15.0076 -2.1474,-25.3333 -1.5028,-5.5 -3.1323,-11.8699 -3.621,-14.1553 -1.2272,-5.7383 -7.2093,-10.2755 -18.222,-13.8204 -17.1426,-5.5182 -20.5102,-6.9801 -24.7035,-10.7239 -5.7902,-5.1695 -8.6292,-11.0828 -10.5466,-21.9671 -0.9042,-5.1333 -2.1821,-11.1333 -2.8396,-13.3333 -0.6575,-2.2 -2.1634,-10.9 -3.3464,-19.3334 -2.215,-15.7905 -2.0217,-34.1602 0.7507,-71.3333 0.6563,-8.8 1.5881,-23.2 2.0707,-32 l 0.8774,-16 -3.798,3.4854 c -4.0871,3.7508 -19.7653,13.1813 -21.9138,13.1813 -2.0048,0 -14.3441,6.3764 -22.822,11.7934 -4.5678,2.9186 -8.7438,6.8862 -10.4578,9.9357 -1.5693,2.7922 -3.503,4.8602 -4.2972,4.5955 -0.7941,-0.2647 -2.2209,-2.846 -3.1707,-5.7363 -3.0037,-9.1401 -3.4093,-9.9217 -5.1494,-9.9217 -1.9636,0 -3.3204,2.9266 -3.3204,7.1623 0,10.9388 -10.0304,31.3339 -19.0276,38.6893 -2.7909,2.2817 -6.7014,5.5072 -8.6901,7.1678 -1.9886,1.6607 -5.3525,3.7607 -7.4754,4.6667 -2.9079,1.241 -4.963,4.0494 -8.3333,11.3878 -2.4605,5.3573 -4.4736,11.7186 -4.4736,14.1362 0,5.3697 -4.583,12.4796 -10.1342,15.7216 -2.2687,1.325 -7.5905,3.1051 -11.826,3.9557 -7.3557,1.4773 -7.8041,1.4099 -10.001,-1.5025 -1.265,-1.6771 -3.356,-6.5747 -4.6468,-10.8837 -1.2907,-4.309 -2.8411,-7.8345 -3.4453,-7.8345 -0.6042,0 -2.3554,1.7651 -3.8916,3.9225 -2.9485,4.1409 -14.275,11.2646 -20.292,12.7627 -4.1313,1.0285 -5.7916,-1.3907 -9.8497,-14.3519 -1.3202,-4.2166 -2.9482,-7.6666 -3.6178,-7.6666 -0.6695,0 -2.9298,1.2194 -5.0228,2.7097 -5.7875,4.1211 -18.4901,9.6201 -20.4685,8.8609 -0.9656,-0.3705 -2.1272,-2.9755 -2.5813,-5.7888 -1.4112,-8.743 -3.4714,-17.899 -4.3457,-19.3136 -0.4927,-0.7972 -2.2835,0 -4.3569,1.9424 -1.9363,1.8128 -5.9531,4.5143 -8.9263,6.0034 -5.6748,2.8421 -21.1082,6.1857 -23.7943,5.1549 -0.8633,-0.3313 -3.0232,-5.2373 -4.7998,-10.9023 -1.7767,-5.6649 -4.0722,-10.623 -5.1012,-11.0178 -1.029,-0.3949 -4.9522,0.8067 -8.7182,2.6703 -3.8137,1.8871 -10.5564,3.7797 -15.2192,4.2718 l -8.3719,0.8835 -2.1194,-5.0705 c -1.1656,-2.7888 -2.7279,-9.2706 -3.4717,-14.4039 -0.7437,-5.1334 -1.5206,-9.5313 -1.7263,-9.7732 -0.2058,-0.242 -1.9818,0.6135 -3.9467,1.901 -2.8059,1.8384 -7.368,2.4695 -21.2579,2.9406 l -17.6853,0.5998 -0.6831,-9.5484 c -0.3758,-5.2516 -1.0273,-9.8924 -1.4478,-10.3129 -0.4204,-0.4205 -2.449,0.4323 -4.5079,1.8951 -3.9908,2.8353 -11.9333,6.483 -18.2816,8.396 -2.1294,0.6417 -8.241,0.7973 -13.5813,0.3459 l -9.7098,-0.8208 -0.8382,-4.9614 c -0.7169,-4.2433 1.7712,-22.1713 4.1166,-29.6617 1.1384,-3.636 -1.1555,-2.8354 -11.6846,4.0781 -5.3705,3.5264 -11.8645,7.2269 -14.4312,8.2235 -2.5667,0.9966 -5.2719,2.2647 -6.0116,2.8181 -1.47,1.0996 -19.4856,5.4942 -20.0814,4.8984 -0.3257,-0.3257 -4.5737,-27.6268 -4.5737,-29.3945 0,-0.3854 -2.9849,0.4334 -6.6332,1.8197 -5.8592,2.2263 -13.172,3.4681 -36.193,6.146 -5.9506,0.6922 -6.1816,0.587 -6.8099,-3.1031 -0.7584,-4.4537 -6.2459,-24.55 -7.0661,-25.8771 -0.7995,-1.2937 -17.1366,1.8307 -37.5436,7.18 -9.6686,2.5345 -17.9186,4.2687 -18.3334,3.8539 -0.4147,-0.4148 -0.7541,-12.3541 -0.7541,-26.5319 0,-21.3508 -0.3244,-25.7778 -1.8889,-25.7778 -1.0389,0 -2.0889,0.5262 -2.3333,1.1693 -0.8311,2.1865 -19.0765,10.4726 -27.7778,12.6152 -4.7667,1.1738 -13.7667,2.5099 -20,2.9691 -6.2333,0.4592 -13.2093,1.3087 -15.5021,1.8877 -2.2928,0.5791 -4.8103,0.6564 -5.5943,0.1718 -1.3438,-0.8305 1.5137,-13.5275 10.2272,-45.4432 1.496,-5.4799 2.4573,-10.2262 2.1362,-10.5474 -0.3212,-0.3211 -1.6876,0.4148 -3.0364,1.6355 -3.4268,3.1012 -23.2925,11.542 -27.1645,11.542 -1.7597,0 -3.8328,0.6333 -4.6068,1.4074 -2.1659,2.1658 -16.3815,4.0709 -55.4593,7.4323 -5.6834,0.4889 -10.3334,0.5 -10.3334,0.025 0,-0.4754 2.4,-3.2643 5.3334,-6.1976 2.9333,-2.9334 5.3333,-5.7213 5.3333,-6.1954 0,-0.4741 2.2489,-4.2241 4.9975,-8.3333 2.7486,-4.1092 5.6441,-8.6713 6.4344,-10.138 0.7903,-1.4667 4.3294,-7.6287 7.8647,-13.6934 3.5352,-6.0647 6.1694,-11.285 5.8537,-11.6007 -0.3157,-0.3157 -10.2039,2.6267 -21.9738,6.5387 -11.7699,3.912 -24.0496,7.5237 -27.2882,8.0259 -3.2385,0.5022 -8.5883,1.7488 -11.8883,2.7701 -13.3631,4.1361 -35.9288,6.3376 -56,5.4633 -22.4482,-0.9777 -46.6667,-3.551 -46.6667,-4.9583 0,-0.5359 2.6786,-2.271 5.9524,-3.8558 3.2737,-1.5849 7.3237,-4.328 9,-6.096 1.6762,-1.7679 3.5036,-3.2248 4.0608,-3.2374 2.0761,-0.047 20.6826,-16.0438 25.5008,-21.9238 5.5731,-6.8012 5.281,-6.9847 -6.3215,-3.9721 -4.5058,1.17 -9.9925,2.3283 -12.1925,2.574 -2.2,0.2458 -11.5,1.9356 -20.6666,3.7551 -36.3455,7.2144 -65.8677,8.9665 -90.3334,5.361 -6.7299,-0.9917 -7.1428,-2.2156 -1.5317,-4.5398 2.2742,-0.942 9.5066,-5.5148 16.072,-10.1618 6.5655,-4.6469 12.2786,-8.449 12.696,-8.449 0.4174,0 9.3165,-8.4879 19.7759,-18.8619 10.4594,-10.37408 20.1355,-19.48522 21.5025,-20.24699 2.9709,-1.65565 6.3678,-4.89111 5.1351,-4.89111 -1.178,0 -20.4705,10.47475 -24.6498,13.38343 -1.8333,1.27597 -8.1076,4.87867 -13.9428,8.00607 -5.8352,3.1274 -13.3027,7.3941 -16.5944,9.4817 -3.2916,2.0875 -6.7376,3.7955 -7.6575,3.7955 -0.92,0 -2.2604,1.05 -2.9785,2.3333 -0.7182,1.2833 -1.6508,2.1726 -2.0723,1.9761 -1.3215,-0.6159 -7.4211,1.2646 -7.4211,2.2879 0,0.5362 -4.3401,1.7938 -9.6446,2.7947 -6.0127,1.1345 -13.152,3.7477 -18.9584,6.9394 -5.1225,2.8157 -11.4324,5.6039 -14.022,6.196 -2.5896,0.592 -8.6084,2.896 -13.375,5.12 -16.6887,7.7864 -34.6041,13.3727 -37.3815,11.6562 -2.1764,-1.3452 -1.6002,-2.6161 8.8642,-19.548 5.5822,-9.0323 11.1322,-18.1305 12.3333,-20.2184 1.2012,-2.0879 5.031,-7.4879 8.5107,-12 7.9565,-10.3171 20.1787,-28.83718 20.5069,-31.07374 0.4073,-2.77468 -15.2508,9.0651 -30.167,22.81068 -10.6131,9.78016 -18.0781,15.68436 -23.7162,18.75736 -2.7227,1.4841 -7.5904,4.6341 -10.8171,7 -3.2267,2.366 -7.2767,4.3018 -9,4.3018 -1.9189,0 -3.1333,0.788 -3.1333,2.033 0,1.1182 -1.4417,2.5811 -3.2038,3.2511 -1.7621,0.6699 -3.6204,1.8921 -4.1296,2.7159 -0.5091,0.8238 -2.2174,2.0629 -3.7961,2.7535 -1.5788,0.6907 -8.2705,4.2854 -14.8705,7.9882 -6.6,3.7029 -14.25,7.6918 -17,8.8643 -2.75,1.1725 -5,2.6408 -5,3.2629 0,0.6221 -2.061,1.1311 -4.5799,1.1311 -2.5189,0 -6.1189,0.5852 -8,1.3003 -1.8811,0.7152 -3.422,0.8652 -3.4244,0.3334 0,-0.9963 4.5193,-17.7965 6.7481,-25.0617 0.6909,-2.2521 1.2562,-5.3538 1.2562,-6.8927 0,-4.648 11.7255,-38.59644 17.535,-50.7685 2.9913,-6.26738 5.5522,-12.16888 5.691,-13.11443 0.1388,-0.94555 0.6697,-2.13655 1.1798,-2.64667 0.5101,-0.51011 0.9275,-2.05575 0.9275,-3.43475 0,-2.20789 -0.597,-2.04248 -5,1.38522 -13.9857,10.88787 -24.7481,18.28418 -28.6667,19.7007 -1.2833,0.46391 -2.3333,1.36131 -2.3333,1.99421 0,0.6329 -2.25,2.31067 -5,3.72838 -2.75,1.41771 -6.226,3.73771 -7.7243,5.15556 -1.4984,1.41784 -4.275,3.42009 -6.1703,4.44944 -14.3155,7.77504 -21.5852,11.03934 -29.7273,13.34854 -15.3405,4.3507 -62.6201,11.8605 -83.3781,13.2436 -10.6333,0.7085 -24.4333,2.2018 -30.6667,3.3185 -31.0627,5.5648 -44.9483,7.218 -54,6.4295 -11.0076,-0.959 -11.6386,-1.2208 -10.1187,-4.1971 0.638,-1.2493 3.3841,-7.043 6.1026,-12.8749 6.8277,-14.64766 21.8922,-33.20379 35.2752,-43.45158 8.5849,-6.57373 14.6192,-10.93255 21.2899,-15.37855 11.6535,-7.76707 13.558,-7.60061 -60.549,-5.29202 -32.87888,1.02426 -132.47406,-10.13506 -139.03258,-15.57815 -3.64485,-3.02496 26.55592,-28.91169 50.84878,-43.58527 13.08528,-7.90388 32.57466,-16.11103 38.25858,-16.11103 2.1881,0 3.77773,-0.65518 3.59192,-1.48043 -0.18334,-0.81424 3.26666,-2.63618 7.66666,-4.04876 4.4,-1.41258 9.20004,-3.10321 10.66664,-3.75695 1.4667,-0.65374 4.9167,-1.55899 7.6667,-2.01166 2.8962,-0.47674 5,-1.57883 5,-2.6193 0,-1.40675 -5.132,-1.98049 -23.66667,-2.64585 -56.91491,-2.04313 -70.42299,-3.24357 -98.33334,-8.73873 -3.66666,-0.72192 -15.06666,-2.88801 -25.33333,-4.81354 -33.70477,-6.32139 -57.32914,-13.60366 -78.66667,-24.24921 -23.67736,-11.81291 -74.29904,-46.44749 -76.40396,-52.27442 -0.74524,-2.06298 6.98792,-2.77622 35.78142,-3.30017 31.04639,-0.56494 51.11594,-1.55364 62.62254,-3.08502 l 7.33333,-0.97597 -8.76252,-4.93245 c -4.81939,-2.71285 -18.61939,-9.84266 -30.66667,-15.84403 -23.63709,-11.77484 -41.11703,-21.40991 -46.80886,-25.80138 -9.97077,-7.69285 -14.41804,-11.37887 -21.82456,-18.08881 -4.45205,-4.03333 -9.85926,-8.77217 -12.01601,-10.53075 -5.36321,-4.37306 -24.94362,-21.7753 -26.58805,-23.63033 -1.79725,-2.02743 -14.56516,-13.26275 -22.5451,-19.83892 -3.55949,-2.93333 -8.343,-6.97375 -10.63002,-8.9787 -2.28701,-2.00495 -4.60821,-3.65495 -5.15821,-3.66667 -0.55,-0.0117 -1,-1.01637 -1,-2.23258 0,-2.01377 2.32594,-2.13338 26.04141,-1.33912 33.89477,1.13517 52.42824,3.67936 76.33774,10.47931 7.54187,2.14494 15.64187,3.69369 18,3.44168 l 4.28752,-0.4582 -4,-1.78582 c -8.9875,-4.01251 -15.16517,-7.54144 -24.66667,-14.09057 -5.5,-3.79101 -18.54431,-12.37981 -28.98735,-19.08622 -17.55928,-11.27638 -42.56293,-29.90468 -55.57195,-41.40241 -7.41869,-6.55684 -39.24853,-38.44621 -44.14425,-44.22681 -6.25902,-7.3903 -14.45954,-18.62395 -19.94392,-27.32056 -2.77479,-4.4 -6.08353,-9.51652 -7.35275,-11.37005 -2.91843,-4.26196 -8.62511,-16.28797 -11.22256,-23.64993 l -1.99227,-5.64669 h 3.35292 c 1.8441,0 8.31131,2.4 14.37156,5.33333 6.06026,2.93334 11.7361,5.33334 12.61299,5.33334 0.87688,0 5.93306,1.52851 11.23595,3.39669 12.76015,4.49532 28.48824,8.13114 48.9136,11.30721 24.32737,3.78283 36.46156,6.01256 50.72803,9.32161 6.96667,1.61589 14.46667,3.1913 16.66667,3.50091 20.68994,2.9117 55.43949,9.6742 74.66667,14.53063 17.33818,4.37931 20.34081,5.24065 25.33333,7.2672 1.46667,0.59535 6.26667,2.4404 10.66667,4.10013 4.4,1.65973 10.83005,4.41822 14.28901,6.12998 10.55906,5.22547 10.10258,4.63233 -9.62235,-12.503 -13.21062,-11.47626 -47.21496,-46.15539 -55.94125,-57.05136 -4.69845,-5.86667 -10.78321,-13.36667 -13.52169,-16.66667 -7.29953,-8.7963 -18.50097,-27.5952 -21.36434,-35.85487 -1.37056,-3.95352 -3.16223,-7.99588 -3.98149,-8.98302 -0.81926,-0.98715 -1.14083,-2.7036 -0.7146,-3.81433 0.67416,-1.75684 1.5173,-1.68212 6.4825,0.57446 15.6754,7.12417 30.63526,13.52778 39.04087,16.71157 17.05753,6.46087 26.65251,10.43661 27.93334,11.57436 0.69666,0.61884 2.28433,1.12516 3.52814,1.12516 1.24381,0 8.17381,2.36057 15.4,5.24571 22.6017,9.02398 64.71467,23.41287 99.80519,34.10079 26.09515,7.9481 67.85254,24.74471 78.00001,31.37495 1.8333,1.19787 4.4079,2.56618 5.7212,3.04068 2.8797,1.04039 2.6,0.53199 -6.1436,-11.16811 -10.4329,-13.96054 -20.49816,-30.31657 -27.85277,-45.26068 -3.78949,-7.7 -8.22679,-16.7 -9.86067,-20 -4.27576,-8.6359 -8.30134,-21.23281 -10.56392,-33.05684 -2.26393,-11.83107 -2.37832,-13.60983 -0.87528,-13.60983 3.13729,0 18.74701,11.34759 29.11611,21.16615 6.48574,6.14138 13.89223,12.72116 16.45893,14.62172 2.5667,1.90057 7.3983,5.68258 10.737,8.40447 7.0839,5.77525 43.7882,28.4645 59.3147,36.66618 21.9837,11.61265 59.617,27.25051 61.3674,25.50014 0.3738,-0.37381 -3.1262,-4.50742 -7.7777,-9.18582 -16.0646,-16.1573 -29.5784,-36.67619 -44.3081,-67.27608 -0.7333,-1.52345 -2.1808,-4.37599 -3.2166,-6.33897 -1.0357,-1.96298 -1.5984,-3.85391 -1.2502,-4.20206 1.3735,-1.37355 19.395,6.43103 53.1335,23.01059 37.7082,18.53033 60.3997,28.0925 78.6667,33.1501 19.6966,5.45341 38.7938,12.52638 55.8824,20.69694 12.253,5.85857 16.8163,7.48015 17.5786,6.24663 0.5663,-0.9163 0.8304,-1.99465 0.5869,-2.39633 -0.2435,-0.40168 -3.5278,-5.7633 -7.2984,-11.91472 -3.7707,-6.15142 -7.9845,-14.25142 -9.3641,-18 -1.3796,-3.74858 -3.8351,-10.41561 -5.4565,-14.81561 -1.6214,-4.4 -3.3963,-8.6 -3.9442,-9.33333 -1.4461,-1.93567 -4.9099,-14.97241 -5.9338,-22.33333 -0.7794,-5.60264 -0.5947,-6.33334 1.6007,-6.33334 1.3649,0 3.0517,0.55639 3.7484,1.23642 3.52,3.43591 63.8889,34.76358 66.99,34.76358 0.5405,0 3.3072,1.2458 6.1481,2.76843 7.0098,3.75705 25.4438,10.48018 32.7952,11.9609 3.3,0.66469 7.5,1.6039 9.3333,2.08715 2.3082,0.60842 -1.8229,-4.20029 -13.4323,-15.63559 -9.2211,-9.08282 -20.4528,-20.77389 -24.9593,-25.98015 -11.2609,-13.00935 -24.4846,-34.10228 -22.5761,-36.01079 1.695,-1.695 7.1111,0.83318 12.9677,6.05322 3.3,2.9413 6.75,5.36484 7.6667,5.38566 0.9167,0.0208 1.6667,0.59741 1.6667,1.28132 0,0.68392 1.05,1.59233 2.3333,2.01869 1.2833,0.42637 6.2333,4.35468 11,8.72958 4.7667,4.37491 9.4167,7.9665 10.3333,7.98131 0.9167,0.0148 1.6667,0.85129 1.6667,1.85884 0,2.21699 36.87,26.1681 40.2828,26.1681 0.4369,0 4.377,2.025 8.7557,4.5 4.3787,2.475 9.3863,4.52459 11.1281,4.55465 3.0338,0.0523 11.0951,2.35267 35.8334,10.22523 12.0273,3.82748 55.2973,12.92276 72.8442,15.31172 17.9955,2.45003 78.038,2.61116 115.1558,0.30904 18.7,-1.15982 42.5998,-1.95678 53.1107,-1.77103 16.8554,0.29787 21.1825,0.88028 36.6667,4.9352 9.6558,2.52862 20.256,5.28631 23.556,6.1282 3.3,0.8419 14.4,4.16001 24.6666,7.37359 26.4135,8.2677 37.6555,15.51599 64.117,41.33952 8.131,7.93497 16.5196,17.12722 18.6414,20.42722 2.1217,3.3 6.6334,9.3 10.026,13.33333 3.3925,4.03333 7.88,10.93333 9.972,15.33334 2.092,4.4 5.7777,11.40095 8.1903,15.55768 2.4127,4.15673 4.3867,8.304 4.3867,9.21615 0,1.96324 10.3155,19.89617 17.9622,31.22617 4.9574,7.3453 9.0597,13.89633 22.0783,35.25744 2.589,4.24802 6.639,9.9238 9,12.61285 2.3611,2.68904 4.2935,5.31829 4.2944,5.84277 9e-4,0.52448 1.5751,2.75361 3.4981,4.95361 1.9231,2.2 6.8263,9.1 10.896,15.33333 4.0697,6.23333 9.9713,15.27752 13.1146,20.09819 3.1434,4.82067 9.1513,12.32067 13.3511,16.66667 4.1998,4.34599 12.0542,13.77368 17.4544,20.9504 10.2048,13.56224 43.3724,47.7071 63.0175,64.87441 6.2334,5.44714 12.1957,11.14284 13.2497,12.65711 1.054,1.51427 4.3176,4.85322 7.2525,7.41989 2.9349,2.56667 9.8725,8.90687 15.417,14.08935 5.5444,5.18247 11.8808,10.56861 14.0808,11.9692 2.2,1.40059 4.3,2.88367 4.6667,3.29574 0.6636,0.74578 6.5074,5.21598 30.7049,23.48752 6.9878,5.27642 15.3878,12.06803 18.6667,15.09246 3.279,3.02443 9.5617,7.33126 13.9617,9.57074 4.4,2.23948 9.2,5.12009 10.6667,6.40137 8.5326,7.45409 39.9966,25.67968 64.4899,37.35599 3.7639,1.7943 6.8542,3.8943 6.8674,4.66667 0.013,0.77236 4.405,2.79011 9.7596,4.48389 5.3547,1.69377 12.6939,4.47988 16.3094,6.19134 22.1292,10.47521 27.3082,12.78628 33.907,15.13073 4.0334,1.43297 10.9334,3.34758 15.3334,4.25468 4.4,0.9071 9.0432,2.19801 10.3183,2.86869 4.9691,2.61368 29.0053,5.34539 46.002,5.22813 14.6113,-0.1008 19.4368,-0.6714 28,-3.31088 5.6905,-1.754 12.1463,-3.47255 14.3463,-3.81901 2.2,-0.34646 10,-2.8103 17.3334,-5.47521 7.3333,-2.66491 16.6333,-5.19158 20.6666,-5.61481 4.0334,-0.42324 10.0334,-1.59768 13.3334,-2.60987 3.3,-1.0122 11.7,-3.13073 18.6666,-4.70786 17.9786,-4.07001 21.2441,-4.84145 28,-6.61467 3.3,-0.86615 6.9,-1.58537 8,-1.59826 1.1,-0.0129 2.9905,-0.88284 4.201,-1.93321 3.2624,-2.83076 3.9159,-0.32476 1.7725,6.79721 -2.3305,7.7437 -2.5515,12.03269 -1.2607,24.46674 l 1.0035,9.66667 -7.8581,0.1146 c -7.1035,0.1036 -7.474,0.2435 -3.8582,1.4564 2.2,0.7379 5.2865,1.2983 6.8589,1.2453 1.5723,-0.053 3.5084,0.6863 4.3022,1.6428 2.0446,2.4636 3.2293,19.4305 1.6902,24.2076 -0.7088,2.2 -1.3403,2.95 -1.4033,1.6666 -0.1393,-2.836 -4.1146,-3.1581 -4.1146,-0.3333 0,1.1 0.5186,2 1.1524,2 1.2515,0 0.921,16.9011 -0.4127,21.1033 -0.527,1.6604 -0.092,2.8601 1.2205,3.3636 4.0742,1.5634 1.8422,90.151 -2.7839,110.4902 -2.0237,8.8976 -3.6756,10.677 -6.9097,7.4429 -2.1776,-2.1776 -2.0109,-3.7333 0.4,-3.7333 1.4269,0 2,-1.4519 2,-5.0667 0,-2.7867 0.5032,-5.6367 1.1182,-6.3333 3.6977,-4.1886 5.6682,-49.906 2.9569,-68.6 -0.6021,-4.1513 -0.4998,-10.8047 0.2357,-15.3334 1.6266,-10.0153 1.627,-14.4652 0,-15.0071 -0.6969,-0.2323 -2.4022,-1.271 -3.7895,-2.3081 -2.4247,-1.8127 -2.4321,-2.0474 -0.1891,-6.06 3.0251,-5.4118 3.2569,-22.2379 0.3586,-26.0366 -1.611,-2.1115 -2.1974,-2.2498 -3.1842,-0.7507 -1.5188,2.3071 -4.393,0.676 -4.0333,-2.2889 0.4699,-3.8741 -1.5807,-6.6934 -5.4937,-7.5528 -4.2927,-0.9428 -8.2591,-4.6031 -5.144,-4.7469 1.0064,-0.047 0.4278,-0.6465 -1.2859,-1.3332 -1.7136,-0.6868 -3.7952,-3.0488 -4.6256,-5.2489 -1.4296,-3.7874 -1.9061,-4.0001 -8.9627,-4.0001 -4.4889,0 -8.4822,-0.7785 -10.0411,-1.9576 -3.3861,-2.56113 -5.3666,-2.58693 -3.2548,-0.042 0.9129,1.1 2.4864,2 3.4966,2 1.0102,0 1.8367,1.2 1.8367,2.6667 0,1.4666 -0.3573,2.6666 -0.7941,2.6666 -1.4488,0 -9.177,-5.8513 -10.9638,-8.30104 -0.9668,-1.32562 -2.3168,-2.06476 -3,-1.64254 -2.4169,1.49376 -1.1858,4.84238 3.3547,9.12468 2.5282,2.3844 4.8894,5.9492 5.2471,7.9219 0.3577,1.9726 1.0296,4.7814 1.4931,6.2418 0.4635,1.4604 0.2586,2.6552 -0.4553,2.6552 -0.9988,0 -1.2204,18.2992 -0.2746,22.6667 0.079,0.3667 1.0191,-0.4895 2.0882,-1.9027 1.0691,-1.4131 2.3827,-2.1305 2.919,-1.5941 0.5364,0.5363 0.1326,1.4959 -0.8973,2.1324 -1.4174,0.876 -0.7599,1.6421 2.7053,3.1521 l 4.5777,1.9948 -4.0666,0.1087 c -2.2367,0.06 -4.8449,-0.6412 -5.7961,-1.5579 -1.3976,-1.3468 -1.6406,-1.1776 -1.2667,0.882 0.2716,1.4956 2.3111,3.1706 4.9361,4.0539 3.9651,1.3342 4.2302,1.707 2.3334,3.2813 -1.4164,1.1754 -2.1401,1.2699 -2.1401,0.2794 0,-0.8231 -1.1591,-1.4966 -2.5758,-1.4966 -3.4302,0 -6.987,-5.3873 -10.7978,-16.3546 -1.724,-4.9618 -4.2202,-10.1867 -5.5471,-11.611 -1.3269,-1.4242 -2.4126,-3.4646 -2.4126,-4.5342 0,-1.0695 -0.45,-2.1446 -1,-2.3891 -0.55,-0.2444 -4.4562,-4.7188 -8.6804,-9.943 -6.4244,-7.9451 -16.2542,-16.5014 -18.9577,-16.5014 -1.8944,0 -0.2533,3.82685 3.4307,8 2.2657,2.5667 6.1574,7.7769 8.648,11.5784 2.4906,3.8015 5.0974,7.2634 5.7928,7.6932 1.8635,1.1517 5.5713,9.0348 4.6724,9.9337 -0.4249,0.4249 -1.3573,-0.2725 -2.0721,-1.5497 -0.7147,-1.2773 -1.8697,-2.3223 -2.5666,-2.3223 -1.9226,0 -1.5143,6.8372 0.5511,9.2284 2.7474,3.1808 7.3961,18.2723 6.5845,21.3759 -0.8055,3.0802 2.0271,3.7659 4.664,1.1291 1.8179,-1.818 2.2221,-10.9419 0.4357,-9.8379 -0.6403,0.3958 -1.0903,-1.8188 -1,-4.9213 0.09,-3.1025 -0.3119,-7.3496 -0.8939,-9.438 -0.7946,-2.8514 -0.6285,-3.657 0.6667,-3.2345 0.9486,0.3095 3.5926,6.1503 5.8754,12.9796 3.5514,10.6245 3.9659,13.2087 2.8709,17.9012 -2.014,8.6315 -2.0299,34.4779 -0.021,35.1493 0.9419,0.3148 1.6458,2.6831 1.6187,5.446 l -0.048,4.8889 -3.2469,-3.9736 c -1.7857,-2.1854 -3.6334,-5.7854 -4.106,-8 -0.4725,-2.2145 -1.3206,-4.6264 -1.8846,-5.3597 -0.5639,-0.7334 -1.4652,-3.4334 -2.0028,-6 -0.5376,-2.5667 -1.3162,-5.2364 -1.7304,-5.9327 -0.4141,-0.6963 -0.9058,-2.4963 -1.0926,-4 -0.7264,-5.847 -4.9359,-19.4007 -6.0254,-19.4007 -0.6318,0 -1.1488,-1.15 -1.1488,-2.5555 0,-1.4056 -0.45,-2.7556 -1,-3 -0.9368,-0.4164 -2.1554,-3.5212 -10.5972,-26.9994 -4.8233,-13.4144 -10.0739,-21.3913 -16.2594,-24.70167 -2.7286,-1.46029 -3.5027,-1.30591 -5.9725,1.19095 -1.799,1.81872 -2.1055,2.62882 -0.8375,2.21342 1.2515,-0.4101 3.536,1.4356 6.1043,4.9318 2.2896,3.1167 5.1097,5.5019 6.378,5.3945 3.0133,-0.2553 6.2539,6.3153 12.7102,25.7713 14.9652,45.0976 21.2722,85.9132 18.0955,117.1039 -1.4781,14.513 -2.9199,8.147 -3.1303,-13.8218 -0.1232,-12.8698 -1.1465,-21.4724 -4.6788,-39.3333 -2.4866,-12.5735 -4.9308,-26.4608 -5.4315,-30.8608 -1.4107,-12.397 -5.8221,-28.3539 -10.8431,-39.2211 -3.4484,-7.4637 -6.6091,-11.7879 -12.8867,-17.6306 -4.5747,-4.2578 -8.6545,-7.758 -9.0662,-7.7782 -0.4117,-0.02 -2.1297,1.2499 -3.8177,2.8225 l -3.069,2.8592 0.9939,-3.1926 c 0.5466,-1.7559 1.5146,-3.3926 2.151,-3.637 0.6363,-0.2445 1.157,-1.1116 1.157,-1.9271 0,-0.8154 1.6123,-3.1654 3.5828,-5.22218 5.3592,-5.59379 1.1053,-4.59472 -6.9731,1.63768 -6.8855,5.3121 -19.0615,22.936 -21.1566,30.6227 -0.4997,1.8333 -1.8207,6.6333 -2.9355,10.6667 -1.1437,4.1378 -2.187,14.3052 -2.3943,23.3333 -0.3966,17.2702 -2.2206,39.9783 -5.8369,72.6667 -1.2785,11.5568 -2.2157,29.5199 -2.126,40.7512 0.1552,19.4435 0.2865,20.3373 4.1147,28 2.175,4.3535 7.2029,14.4707 11.1731,22.4826 3.9702,8.0119 8.4956,16.1119 10.0565,18 1.561,1.8881 3.064,4.6059 3.3401,6.0397 0.9547,4.9573 16.1705,13.166 17.6701,9.5327 0.3911,-0.9474 0.6455,-0.8783 0.7132,0.1938 0.058,0.9166 0.7407,1.6666 1.5173,1.6666 0.7766,0 1.0668,-0.5585 0.6449,-1.2412 -0.4219,-0.6826 -0.1475,-1.6241 0.6097,-2.0921 0.7573,-0.468 1.0317,-1.4095 0.6098,-2.0921 -0.4219,-0.6827 -0.2817,-1.2221 0.3116,-1.1988 1.8678,0.073 5.7453,3.5184 5.7453,5.1046 0,0.8358 0.6,1.5196 1.3333,1.5196 1.5305,0 1.7682,-1.7874 0.4173,-3.1382 -2.1583,-2.1584 -2.5417,-22.5981 -0.437,-23.2996 0.8418,-0.2806 0.7461,-1.5082 -0.2601,-3.3364 -2.1949,-3.988 -2.7038,-6.0402 -3.0596,-12.3378 -0.4687,-8.2953 -6.5372,-25.8341 -8.952,-25.8727 -0.527,-0.01 -0.6128,-0.9153 -0.1907,-2.0153 0.4221,-1.1 0.1674,-2 -0.5659,-2 -0.7333,0 -1.6526,-0.832 -2.0429,-1.849 -0.475,-1.2378 0.038,-1.6537 1.5512,-1.2579 1.2434,0.3251 4.0485,4.0072 6.2336,8.1824 2.185,4.1752 4.333,7.8912 4.7732,8.2579 1.999,1.665 3.7814,6.6697 3.0522,8.5701 -0.4425,1.1531 -0.1404,2.0965 0.6714,2.0965 0.8118,0 1.476,0.9246 1.476,2.0547 0,1.13 1.93,5.763 4.289,10.2956 3.1575,6.067 4.4326,10.4971 4.8335,16.7938 0.3808,5.9791 0.1049,8.2812 -0.9165,7.6499 -2.213,-1.3677 -3.2478,4.7844 -1.9162,11.3921 l 1.1717,5.8139 1.4608,-5.6666 c 0.9077,-3.521 0.9736,-5.6667 0.174,-5.6667 -0.7077,0 -0.3439,-0.9428 0.8085,-2.0952 1.5846,-1.5846 2.0929,-4.9154 2.0856,-13.6667 -0.01,-6.3643 0.6838,-19.2098 1.5313,-28.5456 2.1339,-23.5074 -1.2698,-53.7939 -8.0512,-71.6412 -7.2169,-18.9932 -14.0186,-35.9003 -16.0391,-39.8687 -3.5472,-6.9667 -14.7647,-40.2747 -14.7647,-43.8403 0,-1.655 0.5037,-3.009 1.1193,-3.009 1.1775,0 4.214,5.8499 4.214,8.1184 0,0.7294 1.7618,5.0943 3.915,9.6999 2.1533,4.6055 4.3183,9.9805 4.8112,11.9444 0.4929,1.9639 1.4312,3.5707 2.085,3.5707 0.6539,0 1.1888,0.8896 1.1888,1.9769 0,1.0873 1.5056,3.6373 3.3459,5.6667 1.8402,2.0293 4.2713,4.8897 5.4023,6.3564 1.9945,2.5862 2.0298,2.566 1.1708,-0.6667 -1.1809,-4.4443 -13.7959,-29.7665 -15.2886,-30.6891 -0.6464,-0.3995 -1.0684,-2.1467 -0.9376,-3.8827 0.2328,-3.0904 0.3081,-3.069 3.6058,1.0268 1.8524,2.3007 6.8094,10.6395 11.0155,18.5307 8.1009,15.1983 8.7304,15.7223 5.838,4.86 -3.3395,-12.5416 -15.7326,-32.9679 -27.571,-45.4425 -9.8023,-10.329 -12.4215,-16.1622 -12.0715,-26.8841 0.3272,-10.0251 2.3636,-10.7037 3.1388,-1.0461 0.8023,9.9954 2.4819,13.1539 13.0183,24.4816 7.0405,7.5692 19.3295,23.7013 21.895,28.742 0.6755,1.3274 1.9545,2.1348 2.8421,1.7942 2.4665,-0.9465 3.2297,6.6444 3.2686,32.5092 0.019,12.8333 0.6167,24.2333 1.3276,25.3333 1.2642,1.9563 1.4877,0.5551 1.8947,-11.8833 0.058,-1.7691 0.7553,-3.4358 1.5498,-3.7037 3.0118,-1.0155 4.6128,10.7626 5.206,38.2975 0.5871,27.253 2.4325,43.9562 4.8563,43.9562 0.6379,0 1.1599,-0.9 1.1599,-2 0,-1.1 1.1401,-2 2.5337,-2 1.9349,0 2.9078,1.5599 4.1171,6.6006 0.8709,3.6304 2.4307,7.3038 3.4663,8.1633 1.0356,0.8594 1.8829,2.6206 1.8829,3.9136 0,1.2931 0.8963,4.0696 1.9918,6.1701 1.0954,2.1005 2.0168,5.9191 2.0475,8.4857 0.082,6.8434 3.5458,20.2514 5.556,21.505 0.9559,0.5962 4.428,1.4905 7.7159,1.9875 3.2878,0.497 8.0308,1.7614 10.5399,2.8098 2.5091,1.0484 9.9354,3.0789 16.5027,4.5123 6.5674,1.4333 14.1173,3.5155 16.7776,4.627 2.6603,1.1116 6.944,2.5348 9.5194,3.1627 2.5754,0.628 13.2322,3.2989 23.6819,5.9354 10.4497,2.6365 21.4391,4.7937 24.421,4.7937 7.3758,0 10.033,1.713 12.9755,8.365 5.5852,12.6264 28.2375,40.7762 33.1262,41.1657 1.3629,0.1086 3.6779,0.2586 5.1446,0.3334 2.1686,0.1105 2.6987,1.1319 2.8384,5.4692 0.095,2.9333 0.6009,7.4472 1.1254,10.0308 0.7319,3.6056 0.382,5.377 -1.5051,7.6206 -2.3908,2.8423 -2.6982,2.8711 -11.1254,1.0411 -4.7667,-1.0351 -13.7667,-3.4093 -20,-5.276 -6.2333,-1.8667 -21.2333,-5.8504 -33.3333,-8.8526 -12.1,-3.0022 -22.9,-5.9081 -24,-6.4576 -1.1,-0.5495 -6.2,-2.0719 -11.3334,-3.383 -11.9739,-3.0583 -22.2916,-8.1731 -32.8895,-16.3043 -9.1186,-6.9961 -21.3446,-13.7732 -29.6252,-16.4216 -2.8497,-0.9115 -7.2834,-3.0838 -9.8527,-4.8273 -2.5692,-1.7436 -5.801,-3.1701 -7.1817,-3.1701 -1.3806,0 -5.739,3.15 -9.6852,7 -11.7484,11.4621 -21.0411,19.6667 -22.2749,19.6667 -0.6366,0 -1.1574,0.8672 -1.1574,1.9272 0,1.8263 -1.1961,2.6564 -11.7498,8.1546 -2.7812,1.449 -5.416,4.4273 -7.1158,8.0435 -1.4847,3.1585 -4.0709,7.1224 -5.7472,8.8087 -3.7238,3.746 -9.3086,16.3691 -8.1043,18.3177 1.3033,2.1089 4.3187,1.7095 5.2411,-0.6941 0.4451,-1.16 0.8284,-3.71 0.8517,-5.6667 0.023,-1.9567 0.9233,-4.7223 2,-6.1458 1.821,-2.4076 1.9576,-2.1962 1.9576,3.0298 0,4.7342 0.8698,6.5616 5.5288,11.616 4.2224,4.5808 6.1914,5.8133 8.3333,5.2162 2.0453,-0.5701 2.3046,-0.436 0.9578,0.4956 -1.4895,1.0301 -1.2739,1.5839 1.1142,2.862 3.4173,1.8289 3.844,1.5992 4.4538,-2.3971 0.6727,-4.4076 3.4012,-6.7212 4.9805,-4.2231 1.9019,3.0082 1.5987,4.3968 -2.0351,9.3221 -1.8333,2.485 -3.3333,4.9899 -3.3333,5.5665 0,0.5767 2.1295,4.3773 4.7321,8.4459 3.0655,4.7921 5.2961,7.0494 6.3333,6.409 6.8929,-4.2549 27.3561,-18.5117 29.069,-20.2523 4.4543,-4.5266 10.5534,-9.5024 11.6474,-9.5024 0.626,0 2.2812,-1.2687 3.6782,-2.8194 1.397,-1.5507 11.4488,-10.3338 22.3374,-19.518 l 19.7973,-16.6985 4.5812,2.1846 c 2.5197,1.2016 5.4556,2.1846 6.5242,2.1846 1.0686,0 6.2983,1.4418 11.6214,3.2039 5.3232,1.7621 16.4946,4.8319 24.8253,6.8219 8.3308,1.9899 16.7308,4.4445 18.6667,5.4546 1.9359,1.0101 4.278,1.8402 5.2046,1.8448 0.9266,0 2.7266,0.5565 4,1.2266 1.2734,0.6701 5.9152,1.9128 10.3152,2.7616 4.4,0.8487 9.2,1.9063 10.6667,2.3501 2.455,0.743 2.4059,0.8716 -0.6172,1.6202 l -3.2838,0.8132 4.2592,4.4569 c 3.9555,4.1391 4.7333,4.4114 10.9061,3.8182 4.152,-0.3989 6.8742,-0.088 7.2527,0.828 0.3332,0.8067 0.6532,0.2278 0.7111,-1.2863 0.1083,-2.8327 7.3017,-7.2452 11.8171,-7.2488 1.2585,-10e-4 4.9881,-2.4042 8.2881,-5.3403 3.3,-2.9362 6.7991,-5.0354 7.7758,-4.6649 0.9766,0.3705 2.3266,0.6737 3,0.6737 1.4616,0 1.6601,4.9174 0.2242,5.5555 -1.519,0.6751 -6.0206,9.2016 -5.2597,9.9625 1.2932,1.2932 5.6172,-2.4915 7.5931,-6.646 1.1,-2.313 2.75,-4.2804 3.6666,-4.372 0.9167,-0.092 1.8167,-0.2876 2,-0.4354 1.5236,-1.228 4.9545,-0.7731 5.5327,0.7336 0.3943,1.0276 1.5731,1.8684 2.6195,1.8684 1.0464,0 3.0751,2.3701 4.5083,5.2669 1.7071,3.4502 3.0579,4.8148 3.9164,3.9563 1.5297,-1.5297 5.7565,-0.2358 5.7565,1.7621 0,0.7517 -1.2196,3.34 -2.7102,5.7518 -1.5714,2.5426 -2.17,4.719 -1.4245,5.1797 1.3858,0.8565 5.468,-4.1733 5.468,-6.7374 0,-0.8584 0.9,-1.9061 2,-2.3282 2.5614,-0.9829 2.6162,-4.8512 0.069,-4.8512 -1.0622,0 -3.5498,-1.5 -5.528,-3.3333 -1.9782,-1.8333 -4.1091,-3.3333 -4.7354,-3.3333 -0.6262,0 -1.1386,-0.7557 -1.1386,-1.6793 0,-0.9236 -1.2,-2.4287 -2.6667,-3.3446 -3.7838,-2.363 -3.3382,-3.5309 2.0967,-5.4962 5.4397,-1.967 5.4013,-0.3258 0.612,-26.1466 -1.3602,-7.3333 -2.8751,-16.9333 -3.3664,-21.3333 -0.4913,-4.4 -2.3017,-11.3 -4.023,-15.3334 -4.0506,-9.4909 -5.1753,-21.2472 -2.1344,-22.3092 1.1816,-0.4127 4.5484,-1.7824 7.4818,-3.0437 2.9333,-1.2614 6.9833,-2.6844 9,-3.1623 3.0443,-0.7214 3.6666,-0.4272 3.6666,1.7333 0,1.4317 -1.2001,2.9832 -2.668,3.4491 -1.4675,0.4657 -3.3053,2.0374 -4.0842,3.4927 -0.8892,1.6616 -2.5008,2.496 -4.3319,2.243 -2.5552,-0.353 -2.8872,0.1743 -2.6844,4.2638 0.2495,5.0311 2.8695,14.3795 4.7266,16.8651 0.6295,0.8424 1.3826,7.4424 1.6737,14.6666 0.2911,7.2242 1.468,18.4636 2.6154,24.9763 1.1474,6.5127 2.0862,13.1746 2.0862,14.8043 0,2.7512 0.5001,2.9259 7,2.4448 l 7,-0.5181 -5.3334,2.0271 c -2.9333,1.1149 -6.4084,2.0361 -7.7224,2.0472 -1.314,0.011 -3.6005,1.1486 -5.081,2.528 -2.682,2.4987 -2.6756,2.5138 1.7224,4.0688 6.5485,2.3154 26.4144,3.5347 26.4144,1.6213 0,-0.8423 1.5,-1.5314 3.3333,-1.5314 2.6667,0 3.3333,-0.6667 3.3333,-3.3333 0,-2.0741 0.7556,-3.3334 2,-3.3334 1.1,0 2,-0.7666 2,-1.7036 0,-0.9371 1.1334,-2.6742 2.5187,-3.8602 2.0352,-1.7426 2.3828,-3.3616 1.811,-8.4342 -0.4678,-4.1506 -0.162,-6.6148 0.9024,-7.2727 0.9055,-0.5596 1.9475,-5.4585 2.3814,-11.1955 0.4243,-5.6102 1.3688,-10.2004 2.0989,-10.2004 1.3259,0 0.6413,-10.5396 -1.1259,-17.3334 -0.8468,-3.2553 -0.8517,-13.2826 -0.012,-25.3333 0.3566,-5.1206 1.7085,-13.2757 4.0935,-24.6932 0.3094,-1.4813 1.6521,-3.8813 2.9838,-5.3333 1.3316,-1.4521 3.8399,-4.6522 5.5738,-7.1114 2.5824,-3.6622 2.817,-4.6837 1.2971,-5.6462 -1.3839,-0.8764 -1.0757,-1.1802 1.2125,-1.1955 2.2315,-0.015 3.5947,-1.2811 5,-4.6442 2.2297,-5.3367 2.5539,-13.5011 0.5843,-14.7184 -0.853,-0.5272 -0.6084,-1.8883 0.6667,-3.7087 1.1078,-1.5817 2.0142,-3.9423 2.0142,-5.2458 0,-1.3035 0.8596,-2.37 1.9102,-2.37 1.0506,0 2.2813,-1.1693 2.7349,-2.5984 0.4536,-1.4292 1.994,-2.9696 3.4232,-3.4232 1.4298,-0.4538 2.5984,-2.019 2.5984,-3.4802 0,-1.4606 0.5044,-2.3438 1.1208,-1.9629 0.6164,0.381 0.9953,9.2664 0.842,19.7454 -0.2913,19.9037 -1.7857,30.0578 -10.8495,73.7193 -8.4689,40.7963 -12.4962,54 -16.4705,54 -0.7127,0 -2.5624,2.85 -4.1104,6.3334 -1.5481,3.4833 -3.62,8.1333 -4.6043,10.3333 -0.9843,2.2 -2.2168,5.8 -2.7389,8 -0.6609,2.7853 -1.1165,3.2914 -1.5003,1.6667 -0.9437,-3.9958 -2.6438,-2.5683 -3.5282,2.9625 -0.5997,3.7504 -1.7961,5.7932 -4.0993,7 -2.9667,1.5544 -3.3947,2.1175 -3.3947,4.466 0,0.4191 -0.9429,-0.1809 -2.0953,-1.3333 -3.0456,-3.0457 -9.3187,-2.6128 -12.5603,0.8668 -3.8753,4.1595 -2.9132,6.9498 2.5769,7.474 12.2473,1.1694 20.2681,-4.2501 27.4773,-18.5656 5.8366,-11.5901 9.9332,-22.3958 9.934,-26.2038 4e-4,-1.65 0.3246,-3 0.7205,-3 1.3617,0 11.1,5.2965 11.7895,6.4121 1.2043,1.9485 4.823,20.7564 4.795,24.9213 -0.034,5.017 -6.0001,25.579 -8.2678,28.4933 -9.6025,12.3407 -13.6439,16.0097 -19.1664,17.4003 -8.1385,2.0493 -20.2382,0.4889 -22.0196,-2.8397 -2.8212,-5.2714 2.898,-9.8434 19.4828,-15.5745 4.796,-1.6574 -19.8488,-0.8756 -38,1.2054 -6.2333,0.7146 -17.0333,1.9502 -24,2.7457 -19.8975,2.2721 -71.8899,3.3267 -112,2.2717 -38.653,-1.0166 -60.3726,-2.9051 -67.8295,-5.8978 -3.0111,-1.2084 -9.8369,-1.7523 -20.6666,-1.6467 -18.648,0.182 -15.385,2.0999 4,2.3512 7.4598,0.097 14.0232,0.9319 16.9572,2.1577 2.6326,1.1 7.6559,2.0961 11.1628,2.2134 5.3127,0.1778 5.6097,0.3064 1.7804,0.7707 -3.9077,0.4739 -7.9328,3.3304 -8.0072,5.6826 -0.072,2.2587 8.4113,9.5569 12.7574,10.9758 4.9519,1.6168 5.1967,1.9678 5.5847,8.0102 0.3603,5.6106 0.136,6.2207 -2,5.4406 -2.2494,-0.8216 -2.2421,-0.6923 0.1115,1.989 1.8397,2.0957 2.1354,3.328 1.0984,4.5775 -0.7804,0.9403 -1.7513,5.4932 -2.1575,10.1175 -0.4063,4.6243 -1.3079,10.6162 -2.0038,13.3153 -0.6958,2.6991 -1.6359,10.3074 -2.0891,16.9074 -1.3722,19.9839 -2.0616,26.2701 -3.5134,32.0357 -0.8558,3.3988 -1.1387,16.2175 -0.7372,33.4063 0.3584,15.3403 0.7035,31.4914 0.767,35.8914 0.092,6.3633 -0.8692,48.1319 -1.7335,75.3333 l -0.1482,4.6667 14.7993,0.3751 14.7993,0.3751 0.8897,-18.3751 c 0.4893,-10.1063 0.8513,-42.7828 0.8044,-72.6144 l -0.085,-54.2393 -4.5456,0.7376 c -2.5,0.4057 -5.6217,0.32 -6.9371,-0.1904 -2.1401,-0.8305 -2.0461,-1.1143 0.8945,-2.6984 1.8074,-0.9737 4.9532,-1.5593 6.9908,-1.3014 4.6266,0.5855 4.4398,1.4856 6.381,-30.7355 0.8395,-13.9333 2.0849,-28.2129 2.7675,-31.7323 1.8948,-9.7682 1.5895,-12.6441 -1.4448,-13.6072 -1.4773,-0.4688 -2.3023,-1.4733 -1.8333,-2.2322 0.5501,-0.89 1.241,-0.7514 1.9469,0.3907 0.6018,0.9738 1.4792,1.3854 1.9499,0.9147 1.5768,-1.5768 3.2253,-10.9943 3.2574,-18.6089 0.03,-6.9942 -0.17,-7.489 -2.7477,-6.8149 -1.5287,0.3997 -3.0531,1.4398 -3.3875,2.3113 -0.4374,1.1399 -2.7438,1.293 -8.2205,0.5458 -4.1868,-0.5713 -8.897,-0.719 -10.467,-0.3281 -3.3675,0.8382 -5.638,-1.9434 -2.9829,-3.6546 1.0106,-0.6513 5.8646,-0.9046 10.7867,-0.5628 5.0429,0.3502 9.2968,0.059 9.7454,-0.6667 0.439,-0.7104 -0.8838,-1.2973 -2.9493,-1.3085 -2.0599,-0.011 -4.6454,-0.6342 -5.7454,-1.3843 -1.4034,-0.957 2.5749,-1.2491 13.3373,-0.9795 13.8496,0.3469 15.6278,0.6751 18.3333,3.3842 1.6479,1.65 3.5501,3 4.2271,3 0.6771,0 3.112,1.5827 5.4109,3.5171 3.7456,3.1517 4.518,3.3362 7.4337,1.7758 1.7895,-0.9578 2.9757,-2.0194 2.636,-2.3591 -0.3398,-0.3398 0.089,-1.8889 0.9519,-3.4425 0.8634,-1.5535 1.4422,-3.2747 1.2864,-3.8247 -0.1558,-0.55 5.5668,-0.8918 12.7168,-0.7596 7.15,0.1322 10.15,0.465 6.6666,0.7397 -4.1566,0.3278 -6.3333,1.1135 -6.3333,2.2863 0,2.1831 9.9666,3.4621 14.4201,1.8506 1.6978,-0.6143 5.1478,-1.117 7.6667,-1.117 5.8227,0 6.0424,-2.5869 0.2465,-2.9028 -2.3833,-0.1298 5.8667,-0.6481 18.3334,-1.1516 12.4666,-0.5036 25.6104,-1.3917 29.2083,-1.9737 4.5982,-0.7437 6.2763,-0.6287 5.6484,0.3873 -1.4952,2.4194 13.5929,0.9242 22.9988,-2.2791 4.6872,-1.5963 9.0171,-2.4075 9.6219,-1.8026 0.6048,0.6048 1.971,4.9898 3.0359,9.7444 2.8867,12.8881 8.8413,34.9387 10.2557,37.9781 3.1104,6.6836 5.2194,31.4892 6.7453,79.3334 0.2934,9.2005 2.1013,18.5034 4.0032,20.6 0.6321,0.6967 1.1491,2.2892 1.1491,3.5389 0,1.2498 1.4959,6.6798 3.3241,12.0667 2.3221,6.8422 3.3268,12.6892 3.3333,19.3983 0.01,5.2822 0.7355,11.1977 1.623,13.1455 1.4637,3.2125 1.2779,3.7862 -2,6.174 -1.9875,1.4478 -3.6137,3.4141 -3.6137,4.3696 0,0.9555 -3.059,4.9554 -6.7978,8.8888 l -6.7978,7.1515 0.6632,11.3334 c 0.3648,6.2333 0.1746,18.5333 -0.4226,27.3333 -0.9047,13.3301 -2.0915,19.2261 -7.1123,35.3333 -6.1568,19.7518 -12.7598,45.0207 -15.5042,59.3334 -1.4336,7.4769 -6.1643,29.1974 -10.0186,46 -0.9252,4.0333 -3.2747,14.7358 -5.2211,23.7834 -1.9465,9.0475 -5.3195,22.6122 -7.4958,30.1436 -4.955,17.1485 -6.4535,25.0157 -7.358,38.6297 -0.3937,5.9271 -1.3498,12.7662 -2.1246,15.198 -0.7748,2.4318 -1.0696,5.7181 -0.6551,7.303 0.4144,1.5849 0.1303,8.8952 -0.6315,16.2453 -1.0075,9.7209 -0.9687,15.3626 0.1426,20.697 1.0918,5.2413 1.1382,9.7261 0.1626,15.7211 -0.7508,4.6132 -2.4209,25.8161 -3.7113,47.1173 -2.3166,38.2383 -2.3132,38.7908 0.268,43.546 1.9328,3.5609 4.3695,5.5288 9.3476,7.5493 8.0896,3.2834 25.9323,17.5923 29.8584,23.9449 1.5494,2.5071 3.7158,7.5842 4.814,11.2826 1.0983,3.6983 2.5281,7.0525 3.1774,7.4538 0.6492,0.4012 3.625,-2.0477 6.6128,-5.442 5.3545,-6.0831 5.4805,-6.1401 8.7849,-3.9749 4.3102,2.8242 4.2211,4.2539 -0.5424,8.7037 l -3.8949,3.6384 4.4162,1.597 c 5.6186,2.0317 13.7644,0.264 26.707,-5.7957 5.1333,-2.4035 10.8333,-4.812 12.6666,-5.3522 1.8334,-0.5403 4.0756,-1.5759 4.9827,-2.3014 5.1723,-4.1365 16.4191,6.0127 24.725,22.3121 5.114,10.0355 5.424,11.2997 5.2395,21.3675 -0.2398,13.0905 -5.3558,36.6763 -9.727,44.844 -0.908,1.6965 -6.8039,8.239 -13.1022,14.5389 -10.6478,10.6507 -11.6623,12.1488 -14.4589,21.352 -6.5716,21.6258 -7.3427,26.4688 -6.3787,40.0655 1.1832,16.6888 -2.1394,30.2518 -10.4726,42.7499 -15.0795,22.6163 -16.3266,23.9965 -30.2078,33.4306 -10.8325,7.362 -16.9142,9.498 -22.7434,7.9875 -4.3514,-1.1276 -4.3414,-1.1364 3.2278,-2.8303 10.6594,-2.3855 18.8473,-7.298 29.0528,-17.431 10.1346,-10.0625 16.9841,-20.2063 22.8416,-33.8274 3.8168,-8.8757 4.1587,-10.9539 4.6468,-28.2472 0.9149,-32.4103 7.8528,-52.1782 23.4512,-66.8186 8.4814,-7.9606 12.2499,-13.4861 15.3554,-22.5148 3.2335,-9.4011 6.9012,-28.1688 6.9012,-35.3141 0,-9.2016 -12.7691,-32.9671 -20.3992,-37.9665 -2.8635,-1.8763 -3.7658,-1.7862 -11.0264,1.1003 -4.3493,1.729 -10.124,4.222 -12.8328,5.5399 -4.8197,2.3449 -4.8841,2.4753 -3.0099,6.0996 1.0533,2.0368 5.1331,6.4815 9.0661,9.8771 8.9651,7.7399 13.4576,16.2936 13.3039,25.3304 -0.1357,7.9766 -5.3327,21.5162 -12.5372,32.663 -2.8189,4.3614 -6.3293,10.7964 -7.8008,14.3001 -4.8614,11.5746 -14.9481,47.2367 -17.4201,61.5895 -3.4079,19.7871 -7.5834,35.3602 -11.6143,43.3163 -6.2569,12.35 -13.6604,23.0351 -20.1969,29.1492 -9.3959,8.7887 -13.8033,10.7126 -23.0151,10.0463 -6.1809,-0.4471 -7.269,-0.2477 -5.4529,0.9993 1.2479,0.8569 4.5802,1.9818 7.4052,2.4998 2.8249,0.518 4.8362,1.2418 4.4695,1.6085 -0.3666,0.3666 -2.8716,0.253 -5.5666,-0.2526 -6.4187,-1.2042 -20.1108,-14.9944 -22.1061,-22.2644 -1.8746,-6.8301 -0.3576,-22.9693 3.5882,-38.1771 1.787,-6.8872 3.1335,-13.4872 2.9923,-14.6667 -0.1412,-1.1795 0.1706,-3.1189 0.693,-4.3098 0.5224,-1.191 0.4171,-6.141 -0.2339,-11 -0.651,-4.8591 -0.7543,-8.8347 -0.2296,-8.8347 3.6975,0 1.449,-22.2822 -2.7602,-27.354 -0.9153,-1.1028 -1.1942,-3.4996 -0.6798,-5.8416 1.1715,-5.334 -3.9391,-14.4842 -8.8424,-15.8317 -6.4751,-1.7795 -15.9589,-11.082 -19.9944,-19.6122 -2.0886,-4.415 -3.798,-8.7772 -3.7986,-9.6939 0,-3.0067 -3.7636,-1.7451 -6.5769,2.2059 -1.5166,2.1298 -2.7575,4.3244 -2.7575,4.8768 0,0.5524 -2.4627,4.1965 -5.4726,8.0979 l -5.4727,7.0936 5.4727,6.2173 c 5.1344,5.833 5.4723,6.7208 5.4677,14.3629 -0.01,11.5606 -3.3314,16.8123 -10.6421,16.8123 -4.3865,0 -5.353,0.4614 -5.353,2.5556 0,1.4055 0.6761,2.7809 1.5025,3.0563 2.1494,0.7165 3.1056,13.4273 1.2683,16.8604 -0.8507,1.5894 -2.8438,2.8701 -4.4843,2.8815 -6.6265,0.046 -9.2373,6.3174 -5.5767,13.3963 1.2431,2.4038 2.7472,8.9185 3.3425,14.4769 0.5953,5.5585 2.4771,15.5202 4.1817,22.1372 2.9706,11.531 4.2375,13.9196 14.5202,27.3775 5.957,7.7964 14.6085,26.2584 16.0986,34.3539 0.7665,4.1641 1.8655,8.1711 2.4422,8.9044 0.5766,0.7333 2.4045,5.3901 4.0618,10.3483 5.5562,16.6228 1.0046,32.4189 -13.6018,47.2052 -13.5021,13.6683 -38.0141,22.8013 -52.4216,19.5321 z m 22,-7.2742 c 13.816,-4.3297 21.57,-8.5607 29.5128,-16.1039 11.1937,-10.6305 15.1217,-23.1479 11.833,-37.7075 -3.3923,-15.0184 -3.7336,-15.2089 -3.876,-2.1636 -0.1219,11.1626 -0.584,13.4121 -4.3108,20.9822 -2.5915,5.2642 -6.3205,10.2378 -9.8349,13.1176 -5.5903,4.5808 -5.6902,4.6059 -8.0324,2.0178 -3.1873,-3.5219 -4.5241,-3.3579 -15.6867,1.9255 -6.6282,3.1372 -10.2771,5.7676 -11.7734,8.4873 -3.2386,5.8864 -10.4461,6.9045 -17.2066,2.4306 -5.4035,-3.5759 -6.4341,-4.8256 -14.4012,-17.4641 -9.3319,-14.8032 -14.5937,-23.9688 -16.766,-29.2047 -1.1877,-2.8626 -2.5188,-4.8454 -2.9579,-4.4063 -1.3331,1.3331 2.2486,27.9017 4.2949,31.8589 3.4617,6.6941 18.2195,21.2166 25.1225,24.7218 12.6615,6.4293 17.6726,6.6511 34.0827,1.5084 z m -68.7285,-84.1122 c -1.228,-4.6012 -2.9693,-11.6659 -3.8696,-15.6992 -0.9003,-4.0333 -3.2582,-12.0042 -5.2398,-17.713 -1.9816,-5.7088 -4.0287,-13.6792 -4.5492,-17.7121 -0.5204,-4.0328 -1.5436,-7.462 -2.2738,-7.6203 -2.2459,-0.4871 -4.9367,9.9174 -4.9338,19.0779 0,9.2398 3.6086,19.2482 13.1979,36.6342 2.4268,4.4 5.4589,10.4 6.7379,13.3333 2.2411,5.1396 2.3408,5.2013 2.7443,1.6992 0.2303,-1.9988 -0.5859,-7.3988 -1.8139,-12 z m 8.7285,0.1328 c 0,-4.2121 0.5994,-9.2349 1.3319,-11.1617 1.9641,-5.1658 3.272,-27.2157 1.4633,-24.6703 -0.7816,1.1 -1.4302,4.6134 -1.4415,7.8076 -0.011,3.1941 -0.8583,9.1941 -1.8823,13.3333 -1.0241,4.1392 -2.1914,12.0258 -2.5941,17.5258 -0.654,8.9311 -0.5262,9.7233 1.1952,7.4118 1.157,-1.5535 1.9275,-5.6497 1.9275,-10.2465 z m -1.5478,-46.4776 c -3.4056,-2.8379 -6.4522,-3.4682 -6.4522,-1.3348 0,1.9415 8.5729,6.9054 9.1189,5.28 0.2487,-0.7404 -0.9513,-2.5158 -2.6667,-3.9452 z m 178.8811,-35.4877 c 0,-0.44 -5.1,-5.9 -11.3333,-12.1334 -10.4452,-10.4452 -14.0979,-12.9597 -9.2968,-6.4 7.4333,10.156 20.6301,22.0116 20.6301,18.5334 z m -145.4522,-359.5334 c 0.024,-28.05 0.643,-58.8 1.3757,-68.3333 2.3465,-30.5333 1.7537,-78.642 -1.2568,-102 -1.465,-11.3667 -2.6644,-24.7055 -2.6652,-29.6419 -8e-4,-4.9364 -0.6042,-13.0364 -1.3408,-18 -0.7366,-4.9636 -1.7999,-12.6248 -2.3629,-17.0248 l -1.0236,-8 -3.839,10.6667 c -2.1114,5.8667 -4.5831,12.4667 -5.4927,14.6667 -0.9095,2.2 -3.2691,8.2 -5.2436,13.3333 -1.9744,5.1333 -4.4019,11.1333 -5.3945,13.3333 -7.0119,15.5423 -9.1237,22.6936 -11.406,38.6246 -3.5925,25.0768 -7.4301,42.2241 -12.528,55.978 l -4.4715,12.0641 1.3858,14 c 1.26,12.7289 1.1098,15.2473 -1.6545,27.7387 l -3.0403,13.7386 3.0299,5.391 c 2.2351,3.9769 2.8502,6.7305 2.3449,10.4977 -0.7409,5.5242 1.7293,10.634 5.1409,10.634 2.6549,0 14.6554,12.7676 17.3625,18.4724 1.2039,2.537 5.5661,8.0187 9.6937,12.1817 4.1277,4.1629 10.1445,10.9687 13.3708,15.1241 3.2262,4.1553 6.3397,7.5551 6.9188,7.5551 0.579,0 1.0724,-22.95 1.0964,-51 z m 41.1206,-260.8375 c 12.133,-5.6851 20.4372,-8.0744 28.2563,-8.1299 6.1264,-0.043 37.0092,-9.5782 54.0753,-16.6951 18.8841,-7.8751 21.0229,-9.431 35.7466,-26.0041 l 7.6995,-8.6667 -0.7898,-10 c -0.4344,-5.5 -1.0712,-11.35 -1.4151,-13 -0.3439,-1.65 -0.097,-3 0.5482,-3 0.6454,0 0.5329,-2.4 -0.2501,-5.3333 -0.7829,-2.9334 -2.079,-5.3334 -2.8802,-5.3334 -1.8058,0 -5.1286,-8.8282 -4.0063,-10.6441 0.4508,-0.7295 -0.054,-3.283 -1.1227,-5.6745 -2.4883,-5.5702 -3.9903,-13.4934 -3.9205,-20.6814 0.03,-3.1167 -0.3763,-5.6667 -0.9035,-5.6667 -0.5271,0 -1.064,-8.25 -1.193,-18.3333 -0.2256,-17.6333 -2.1346,-45.3927 -3.599,-52.3333 -0.3869,-1.8334 -1.9593,-7.3834 -3.4944,-12.3334 l -2.791,-9 h -5.1008 c -3.8857,0 -5.4735,0.6965 -6.6656,2.924 -0.8606,1.6082 -2.9698,4.4392 -4.687,6.2911 -3.041,3.2795 -3.1711,3.3003 -5.0004,0.7986 -1.033,-1.4127 -1.6513,-3.1937 -1.3739,-3.9578 0.7769,-2.1399 -1.6531,-5.1773 -3.3186,-4.148 -0.8153,0.5039 -1.4824,1.7808 -1.4824,2.8375 0,1.1341 -1.2988,1.9213 -3.1701,1.9213 -1.7435,0 -3.8956,0.8743 -4.7825,1.9429 -1.252,1.5086 -5.2018,1.9352 -17.6718,1.9086 -9.662,-0.021 -16.627,0.5332 -17.4842,1.3904 -0.7836,0.7836 -1.9047,1.4248 -2.4914,1.4248 -1.7223,0 -1.2218,-3.7148 0.6,-4.4541 1.2586,-0.5107 1.1834,-1.0117 -0.3071,-2.0462 -1.5358,-1.066 -0.7222,-1.5701 3.6667,-2.2719 3.7469,-0.5992 5.6404,-1.5787 5.6404,-2.9179 0,-2.342 3.783,-5.5393 6.6269,-5.6008 2.6784,-0.058 14.6537,-5.8017 14.6829,-7.0425 0.013,-0.55 -0.5765,-1 -1.3098,-1 -0.7333,0 -1.3333,-0.6 -1.3333,-1.3333 0,-0.7333 2.2,-1.3333 4.8889,-1.3333 6.0579,0 5.4461,-0.8167 -1.4211,-1.8973 -2.8594,-0.45 -9.6121,-2.1004 -15.0059,-3.6676 -9.6228,-2.796 -10.0253,-2.8067 -21.4339,-0.565 -12.7491,2.5049 -13.8955,3.0107 -10.9894,4.8486 1.635,1.0341 1.5639,1.2438 -0.4277,1.2609 -1.314,0.011 -3.6518,1.1968 -5.1951,2.6346 -3.6384,3.3896 -19.6543,5.7728 -26.4158,3.9307 -1.4099,-0.3841 -2.0399,0.5517 -2.1353,3.1714 -0.1447,3.9772 -2.2589,6.4221 -10.2246,11.8238 -4.5174,3.0634 -5.5639,3.2651 -10.3333,1.9921 -3.6876,-0.9843 -5.3068,-2.1461 -5.3068,-3.8077 0,-1.5023 0.9913,-2.3912 2.6666,-2.3912 1.4667,0 2.6667,-0.5817 2.6667,-1.2928 0,-1.7648 -5.0351,-10.5995 -7.374,-12.9383 -1.0453,-1.0453 -2.5027,-2.9209 -3.2388,-4.168 -2.2148,-3.7524 -3.7512,0.3058 -4.7767,12.6167 -0.5654,6.7882 -1.6314,11.6365 -2.7653,12.5776 -1.1311,0.9387 -1.8468,4.1771 -1.8494,8.3681 0,3.7602 -0.9579,12.2367 -2.1234,18.8367 -1.4134,8.0037 -1.8448,15.3303 -1.2955,22 0.4588,5.5705 0.2239,12.0433 -0.5304,14.6129 -0.7447,2.5371 -0.8525,5.1144 -0.2395,5.7274 0.6129,0.613 5.5571,0.1877 10.9871,-0.9451 5.4299,-1.1328 11.0726,-2.0196 12.5392,-1.9705 2.3198,0.077 2.233,0.2894 -0.6666,1.6287 -1.8334,0.8467 -3.6334,1.8853 -4,2.308 -1.0016,1.1545 -11.245,3.9719 -14.4411,3.9719 -1.5392,0 -3.4136,1.1495 -4.1655,2.5545 -0.8572,1.6016 -1.5765,26.842 -1.9284,67.6667 -0.3087,35.8117 -1.0011,67.7233 -1.5386,70.9147 -1.187,7.0472 0.026,8.113 9.4069,8.2638 3.6667,0.059 11.4667,0.9224 17.3333,1.9188 5.8667,0.9964 15.6175,1.6237 21.6684,1.394 9.6167,-0.365 12.4703,-1.1057 22.6667,-5.8833 z m 4.9983,-9.5689 c -2.5864,-1.0405 -2.5807,-1.0756 0.1877,-1.1665 1.5699,-0.052 5.4699,-1.2806 8.6667,-2.7311 3.83,-1.7379 8.7453,-2.6474 14.4122,-2.6667 11.8773,-0.04 8.9602,2.0503 -6.3056,4.5194 -6.7954,1.0991 -12.7916,2.2501 -13.3248,2.558 -0.5333,0.3078 -2.1696,0.077 -3.6362,-0.5131 z m 31.3333,-9.2602 c 0,-0.7334 0.6354,-1.3334 1.412,-1.3334 0.7766,0 1.0412,0.6 0.588,1.3334 -0.4532,0.7333 -1.0886,1.3333 -1.412,1.3333 -0.3234,0 -0.588,-0.6 -0.588,-1.3333 z m 9,-3.5498 c 0.9167,-0.3698 2.4167,-0.3698 3.3333,0 0.9167,0.3699 0.1667,0.6726 -1.6666,0.6726 -1.8334,0 -2.5834,-0.3027 -1.6667,-0.6726 z m 44.3333,-12.4502 c 0,-0.7334 0.9355,-1.3334 2.0787,-1.3334 1.1433,0 1.7079,0.6 1.2547,1.3334 -0.4532,0.7333 -1.3887,1.3333 -2.0787,1.3333 -0.6901,0 -1.2547,-0.6 -1.2547,-1.3333 z m -143.1971,-39.8559 c -4.7364,-0.7389 -9.0699,-4.3215 -7.3309,-6.0605 0.391,-0.3911 3.9698,-0.1199 7.9528,0.6025 3.9831,0.7225 10.0919,1.6504 13.5752,2.0621 7.2671,0.8588 8.2367,2.5377 2.1667,3.7518 -4.6499,0.9299 -8.6838,0.8422 -16.3638,-0.3559 z m -2.8568,-151.5379 c 2.8551,-2.1588 4.9271,-1.9868 5.7484,0.4771 0.3387,1.0161 -1.0644,1.5681 -3.9167,1.5409 -4.2154,-0.04 -4.3098,-0.1442 -1.8317,-2.018 z m -50.6639,215.0604 c 0.4762,-3.85 1.3691,-10 1.9842,-13.6666 1.4295,-8.5215 1.718,-27.0775 0.4526,-29.1098 -0.5332,-0.8563 -0.6916,-7.8569 -0.352,-15.5569 0.5215,-11.8242 0.5344,-29.5141 0.033,-45 -0.065,-2.0167 0.4679,-12.2951 1.1849,-22.841 1.458,-21.4452 1.3107,-22.0797 -7.3097,-31.4924 -4.629,-5.0545 -17.9416,-23.7726 -17.9416,-25.2268 0,-0.3743 -1.6761,-3.3234 -3.7245,-6.5535 -2.0485,-3.2301 -4.8533,-9.4009 -6.2328,-13.713 -1.3796,-4.312 -4.2035,-11.5916 -6.2755,-16.1769 -2.072,-4.5853 -3.7672,-9.1037 -3.7672,-10.041 0,-0.9373 -1.805,-2.3854 -4.011,-3.2181 -2.9249,-1.104 -4.2377,-2.6472 -4.848,-5.6987 -0.64,-3.2 -1.3434,-3.9683 -2.989,-3.265 -1.1836,0.5058 -3.9548,1.2887 -6.1582,1.7397 -9.1222,1.8672 -10.8802,5.1333 -12.6425,23.4867 -0.5633,5.8666 -2.2608,14.8666 -3.7724,20 -3.1634,10.7433 -5.4755,34.859 -5.7844,60.3333 -0.1178,9.7167 -0.6443,17.6667 -1.17,17.6667 -0.5256,0 -0.9432,2.55 -0.9278,5.6666 0.033,6.6813 -1.6402,17.1068 -3.0492,19.0001 -0.5457,0.7333 -2.0244,4.9333 -3.2858,9.3333 -1.2615,4.4 -2.7079,8.3 -3.2144,8.6667 -1.6514,1.1954 -3.6157,9.8702 -3.5474,15.6659 0.037,3.1163 -0.5333,5.6755 -1.2666,5.6871 -0.7333,0.012 -0.5601,0.5117 0.385,1.1113 1.1896,0.7548 1.3673,2.0818 0.5776,4.3129 -2.4439,6.9038 0.048,10.8908 19.622,31.3958 2.191,2.2952 6.5558,5.5108 9.6995,7.1459 3.1438,1.635 6.0159,3.3571 6.3826,3.8269 2.1573,2.7641 14.2259,6.9405 24,8.3054 6.2333,0.8704 14.9333,2.3522 19.3333,3.293 4.4,0.9407 10.1937,1.7581 12.8749,1.8164 l 4.8749,0.106 z m -11.2822,-60.2546 c 0,-2.7192 2.6132,-3.9989 4.4384,-2.1737 1.1636,1.1636 1.0538,1.8463 -0.4495,2.7968 -2.8135,1.7787 -3.9889,1.5951 -3.9889,-0.6231 z m -15.161,-4.4666 c -0.3584,-0.5799 -2.9438,-1.1902 -5.7453,-1.3561 -2.8015,-0.1658 -6.8937,-1.1602 -9.0937,-2.2096 -2.2,-1.0494 -5.65,-2.2505 -7.6666,-2.6693 -2.0167,-0.4187 -3.6667,-1.4314 -3.6667,-2.2504 0,-1.6648 10.2805,-0.6962 14.3042,1.3477 5.4963,2.7919 12.5853,5.5256 14.329,5.5256 1.0319,0 2.2469,0.6 2.7001,1.3333 0.4533,0.7334 -0.3759,1.3334 -1.8426,1.3334 -1.4666,0 -2.9599,-0.4746 -3.3184,-1.0546 z m 12.4766,-82.9786 c -0.8424,-1.5741 -1.2414,-3.1521 -0.8868,-3.5068 1.0165,-1.0164 6.2926,2.7091 5.8247,4.1128 -0.8371,2.5115 -3.4404,2.192 -4.9379,-0.606 z m 21.3708,-22.3002 c 0.011,-2.75 0.8464,-8.6 1.8569,-13 1.0104,-4.4 2.2353,-11.9196 2.722,-16.7103 l 0.8849,-8.7102 -5.0751,-2.1452 c -2.7913,-1.1798 -6.7884,-2.5375 -8.8824,-3.0171 -2.1859,-0.5006 -4.0976,-1.9818 -4.4889,-3.4779 -0.3748,-1.4333 -1.1312,-2.606 -1.681,-2.606 -0.5497,0 -5.4166,-6.5631 -10.8152,-14.5848 -5.3986,-8.0216 -9.9568,-14.4437 -10.1292,-14.2713 -0.1724,0.1724 0.4983,3.3906 1.4904,7.1516 0.9921,3.761 1.8458,11.8908 1.897,18.0662 0.1115,13.4325 2.2756,20.5176 10.6739,34.9456 5.6134,9.6437 17.5925,23.3594 20.4018,23.3594 0.6189,0 1.1341,-2.25 1.1449,-5 z m -13.0839,-17.6849 c -2.975,-3.1934 -4.7367,-9.4313 -2.3943,-8.4781 1.6954,0.6899 6.5231,9.8762 5.6495,10.7498 -0.3242,0.3242 -1.7891,-0.698 -3.2552,-2.2717 z m -9.2691,-14.2754 c -2.0017,-0.7149 -2.2456,-4.373 -0.2915,-4.373 1.3753,0 3.3961,3.7365 2.4562,4.5416 -0.2739,0.2347 -1.2481,0.1588 -2.1647,-0.1686 z M 2538.6667,1412 c 0,-0.7333 -1.35,-1.3241 -3,-1.3129 -2.4259,0.016 -2.6172,0.2678 -1,1.3129 2.5851,1.6706 4,1.6706 4,0 z m 5.3334,-4 c 0,-0.7333 -0.5646,-1.3333 -1.2547,-1.3333 -0.69,0 -1.6254,0.6 -2.0787,1.3333 -0.4532,0.7334 0.1114,1.3334 1.2547,1.3334 1.1433,0 2.0787,-0.6 2.0787,-1.3334 z m 121.3333,-36 c -2.6268,-1.6975 -5.7158,-1.6975 -4.6667,0 0.4533,0.7334 2.1387,1.3242 3.7454,1.313 2.375,-0.017 2.5473,-0.2622 0.9213,-1.313 z m 11.0273,-8.1727 c -0.8039,-0.8038 -2.2241,-0.9903 -3.1559,-0.4144 -1.2516,0.7735 -1.0207,1.2917 0.8838,1.9831 3.1567,1.146 4.2393,0.3986 2.2721,-1.5687 z m 30.2856,-6.9059 c -0.017,-2.375 -0.2621,-2.5473 -1.3129,-0.9214 -1.6976,2.6269 -1.6976,5.7159 0,4.6667 0.7333,-0.4532 1.3242,-2.1386 1.3129,-3.7453 z m -283.3585,-7.2547 c 1.4085,-2.75 3.9449,-6.91 5.6366,-9.2444 1.6916,-2.3344 3.0757,-4.9511 3.0757,-5.8149 0,-2.5666 10.5582,-14.3946 13.7333,-15.3849 3.2426,-1.0114 14.2667,-11.7282 14.2667,-13.869 0,-0.7444 0.75,-1.3723 1.6666,-1.3954 0.9167,-0.023 2.8173,-1.6193 4.2236,-3.5472 l 2.557,-3.5053 -3.557,-2.8362 c -1.9563,-1.5599 -3.5569,-3.5637 -3.5569,-4.4528 0,-0.9073 -1.755,-1.6166 -4,-1.6166 -2.2,0 -4,-0.5472 -4,-1.2161 0,-0.6689 -2.4,-1.6216 -5.3333,-2.1172 -2.9334,-0.4956 -5.3334,-1.3602 -5.3334,-1.9215 0,-1.7925 13.8728,0.1283 17.3334,2.4 1.8333,1.2035 5.1333,2.5074 7.3333,2.8975 2.2,0.3901 3.8554,1.4241 3.6786,2.2976 -0.4755,2.3496 7.7604,0.5263 10.8455,-2.4009 2.4572,-2.3315 2.3158,-2.5284 -5.3333,-7.4245 -4.3216,-2.7662 -9.8786,-5.2377 -12.3489,-5.4924 -2.4704,-0.2546 -6.7146,-1.5971 -9.4317,-2.9832 -2.7171,-1.3862 -8.7959,-2.9495 -13.5085,-3.4739 -10.8153,-1.2037 -20.138,-5.5767 -28.235,-13.2442 -6.2786,-5.9454 -6.3334,-6.0715 -6.3334,-14.5805 0,-4.7208 -0.6,-8.9541 -1.3333,-9.4073 -0.7333,-0.4533 -1.3578,-1.8387 -1.3877,-3.0787 -0.093,-3.8666 -7.6703,-18.4526 -8.4439,-16.2547 -0.3871,1.1 -1.3467,17.8452 -2.1322,37.2115 -1.4801,36.4867 -0.7175,52.257 3.5195,72.7885 2.2783,11.0398 2.714,13.6607 2.9408,17.6891 0.2663,4.7304 11.7413,14.9776 16.7722,14.9776 3.4224,0 4.561,-0.8515 6.6857,-5 z m 270.0456,-0.4888 c 0,-1.394 -0.4253,-1.4426 -3.2243,-0.3685 -3.0614,1.1747 -2.5911,3.0671 0.5576,2.2436 1.4667,-0.3835 2.6667,-1.2273 2.6667,-1.8751 z m -208.3611,-283.3168 c -0.4431,-0.443 -1.5931,-0.4904 -2.5556,-0.1052 -1.0636,0.4256 -0.7477,0.7416 0.8056,0.8055 1.4056,0.058 2.1931,-0.2572 1.75,-0.7003 z m 32.3611,-68.67039 c 0,-1.3882 -0.537,-2.52401 -1.1934,-2.52401 -0.6563,0 -2.6063,-1.48963 -4.3333,-3.3103 -3.2551,-3.4317 -7.0437,-4.33623 -8.4733,-2.02303 -0.4532,0.73333 -0.1532,1.33333 0.6667,1.33333 0.8199,0 1.0965,0.63781 0.6147,1.41735 -1.0584,1.71251 3.024,6.51163 6.7186,7.89815 3.62,1.3585 6,0.2512 6,-2.79149 z m 18,-2.52401 c -0.4532,-0.73333 -1.424,-1.33333 -2.1574,-1.33333 -0.7333,0 -0.9625,0.6 -0.5093,1.33333 0.4533,0.73333 1.4241,1.33333 2.1574,1.33333 0.7334,0 0.9625,-0.6 0.5093,-1.33333 z m -58.5836,-4.13433 c 0.5157,-0.83454 2.5628,-1.13651 4.7453,-0.7 3.0206,0.60413 3.8607,0.2777 3.9436,-1.53234 0.064,-1.39154 0.3709,-1.64169 0.7777,-0.63333 0.9491,2.35209 4.8928,2.07097 11.4649,-0.81728 3.1086,-1.36618 7.1521,-3.12557 8.9854,-3.90976 2.5135,-1.0751 2.7401,-1.44801 0.9214,-1.51605 -1.3267,-0.0496 -2.0413,-0.69024 -1.588,-1.42358 0.4532,-0.73333 -0.4756,-1.33333 -2.064,-1.33333 -2.1148,0 -2.666,0.57849 -2.0589,2.16069 0.6681,1.74092 0.2425,1.97766 -2.1906,1.21859 -6.6144,-2.06349 -17.991,-0.24446 -18.6112,2.97577 -0.3363,1.7463 -2.197,2.19757 -9.3762,2.27393 -5.7776,0.0615 -9.5617,0.74606 -10.6613,1.92875 -0.9375,1.00842 -1.0897,1.49359 -0.3382,1.07817 0.7514,-0.41542 3.4514,-0.26486 6,0.33458 6.7029,1.57659 9.0259,1.55237 10.0501,-0.10481 z m 61.3111,-9.74525 c 2.538,-1.85582 2.5379,-1.91557 -0.01,-4.72898 -2.0392,-2.2533 -3.8268,-2.76663 -8.5448,-2.45375 -6.2324,0.41331 -9.4842,3.60862 -3.9523,3.88364 2.0682,0.10282 2.367,0.35175 0.8913,0.74257 -1.2209,0.32335 -2.552,1.45375 -2.9581,2.512 -1.0063,2.62235 10.9965,2.65903 14.5721,0.0445 z m 13.6287,-8.09486 c -0.1959,-2.55261 -0.8062,-4.65261 -1.3562,-4.66667 -7.1046,-0.18161 -7.9482,1.07546 -4.2577,6.34443 3.2541,4.64592 6.0353,3.81472 5.6139,-1.67776 z m 249.6438,1202.70624 c 0,-0.3309 0.8908,-4.0218 1.9796,-8.2019 2.0608,-7.9119 4.2515,-12.1866 2.6618,-5.1938 -2.1653,9.5241 -3.4519,13.9973 -4.0261,13.9973 -0.3384,0 -0.6153,-0.2708 -0.6153,-0.6016 z m 6.8772,-44.7318 c 0,-1.8333 0.3026,-2.5833 0.6725,-1.6666 0.3699,0.9166 0.3699,2.4166 0,3.3333 -0.3699,0.9167 -0.6725,0.1667 -0.6725,-1.6667 z m 0.7965,-16.6666 c 0.3504,-1.8334 0.8672,-3.3334 1.1484,-3.3334 0.2812,0 0.5113,1.5 0.5113,3.3334 0,1.8333 -0.5168,3.3333 -1.1485,3.3333 -0.6316,0 -0.8617,-1.5 -0.5112,-3.3333 z m -259.1547,-597.6715 c -1.0984,-1.0984 -1.8145,-3.5717 -1.5914,-5.4962 0.3432,-2.9594 1.1431,-3.5608 5.1865,-3.8998 3.1259,-0.262 5.3861,0.3286 6.5294,1.7062 4.2403,5.1092 -5.3904,12.4239 -10.1245,7.6898 z m -0.519,-19.6619 c 0,-1.2222 0.645,-2.0072 1.4333,-1.7444 0.7884,0.2627 1.4334,1.0477 1.4334,1.7444 0,0.6967 -0.645,1.4817 -1.4334,1.7445 -0.7883,0.2627 -1.4333,-0.5223 -1.4333,-1.7445 z m 8.2667,-68.9333 c -3.8723,-3.8723 0.3635,-10.4 6.7484,-10.4 4.4981,0 5.9938,4.2616 3.0647,8.7319 -2.2992,3.5091 -7.1479,4.3333 -9.8131,1.6681 z m 94.4,-69.0667 c 0,-0.7333 0.6,-1.3333 1.3333,-1.3333 1.9068,0 1.6502,-2.3585 -0.3333,-3.0635 -0.9167,-0.3258 0.058,-0.3697 2.1666,-0.098 2.1084,0.272 5.4084,0.5431 7.3334,0.6024 3.1902,0.098 3.028,0.3313 -1.8334,2.6317 -5.9968,2.8378 -8.6666,3.2261 -8.6666,1.2604 z m 54.1868,-19.7935 c -1.3464,-1.4878 -2.1121,-3.2487 -1.7015,-3.913 0.4106,-0.6643 -2.381,-6.5522 -6.2035,-13.084 -8.4078,-14.3673 -10.8853,-20.5428 -8.2416,-20.5428 2.0815,0 5.9598,5.0481 5.9598,7.7575 0,3.1378 5.5122,9.7925 7.4844,9.0357 1.0728,-0.4117 1.8489,0.1348 1.8489,1.3017 0,1.1062 1.1969,4.3574 2.6597,7.2248 2.0218,3.9629 2.4177,6.3782 1.6508,10.0693 -1.0011,4.8185 -1.0277,4.8351 -3.457,2.1508 z m -20.3313,-2.1023 c -0.4002,-1.0427 -0.1234,-3.0246 0.615,-4.4043 1.7823,-3.3303 -1.4538,-5.3498 -14.3653,-8.9648 -8.5591,-2.3964 -10.0627,-3.2742 -11.1389,-6.5027 -0.6842,-2.0528 -0.9334,-4.0431 -0.5537,-4.4228 0.3798,-0.3798 3.3366,0.7868 6.5708,2.5924 3.2341,1.8057 7.7864,3.7016 10.1162,4.2133 4.3553,0.9566 15.8614,6.5848 18.2337,8.919 0.8858,0.8715 0.6152,1.8429 -0.806,2.8939 -1.1766,0.8701 -2.567,2.9297 -3.0898,4.5769 -1.0621,3.3465 -4.4627,4.016 -5.582,1.0991 z m -14.4247,-5.6643 c -0.8645,-2.2527 1.1763,-4.382 4.2358,-4.4195 2.1189,-0.026 2.1583,2.9547 0.067,5.0463 -2.174,2.174 -3.2901,2.0115 -4.3025,-0.6268 z m -141.1597,-5.1485 c -1.7186,-2.3612 -1.907,-3.2977 -0.6667,-3.3139 0.9509,-0.012 -0.2435,-1.2854 -2.6542,-2.8291 -2.4107,-1.5436 -5.2487,-4.4805 -6.3066,-6.5263 -1.3552,-2.6206 -2.6651,-3.5258 -4.4331,-3.0635 -4.0246,1.0525 -4.5307,-2.9847 -0.5988,-4.7762 2.7866,-1.2696 3.8348,-1.1566 5.8046,0.626 1.3221,1.1965 2.0535,3.0884 1.6254,4.2041 -0.597,1.5558 -0.1346,1.8242 1.9839,1.1519 1.9623,-0.6229 3.6618,0.077 5.8683,2.4178 1.7083,1.812 4.9061,3.4873 7.1061,3.7228 3.27,0.3502 3.9964,1.0367 3.9806,3.7617 -0.012,2.1253 -0.7795,3.3411 -2.1167,3.3547 -1.1534,0.012 -3.1375,1.0617 -4.4091,2.3333 -2.8009,2.8009 -2.2959,2.9045 -5.1837,-1.0633 z m 418.921,-4.6435 c -7.6572,-1.2949 -16.4877,-6.7514 -19.0994,-11.8018 -1.0907,-2.1094 -2.3774,-7.6831 -2.8592,-12.3861 -0.9988,-9.748 -2.1386,-11.4697 -13.2335,-19.9874 -8.0679,-6.1938 -17.9633,-16.231 -25.3333,-25.6962 -5.3255,-6.8393 -5.2757,-6.7313 -8.0256,-17.4431 -1.3178,-5.1333 -2.8134,-9.8155 -3.3235,-10.4049 -0.5102,-0.5895 -2.232,1.9605 -3.8263,5.6666 -1.5943,3.7061 -3.3321,6.7218 -3.8617,6.7016 -0.5296,-0.02 -2.4629,-2.143 -4.2963,-4.7173 -3.5456,-4.9787 -25.5288,-20.3226 -33.3333,-23.266 -2.5667,-0.968 -8.7961,-4.1324 -13.8431,-7.0319 l -9.1764,-5.2718 0.8597,-8.8381 c 3.5929,-36.9353 4.901,-48.0992 6.1132,-52.1715 2.8281,-9.5008 5.8448,-39.9512 5.9442,-60 0.094,-18.9897 -0.141,-21.1222 -2.8976,-26.2802 -1.65,-3.0875 -3,-6.7237 -3,-8.0806 0,-2.6273 -19.4878,-23.5395 -25.7083,-27.5873 -5.3885,-3.5065 -6.245,-1.2617 -1.1414,2.9914 8.5043,7.087 14.9251,14.1703 14.3064,15.7827 -0.3515,0.916 1.0418,2.2184 3.1652,2.9586 2.1482,0.7489 4.1904,2.6724 4.7091,4.4355 0.5037,1.7123 2.1406,5.7186 3.6375,8.9029 2.2747,4.8387 2.7208,8.4519 2.7159,22 0,8.9157 -0.4502,18.4686 -0.9932,21.2287 -0.6008,3.054 -0.4349,5.6839 0.4238,6.7186 2.3461,2.8269 -4.4116,42.5012 -8.0286,47.1355 -0.6607,0.8465 -0.8123,3.0887 -0.337,4.9826 0.9113,3.6309 -2.6453,15.8737 -5.6889,19.5833 -0.95,1.1577 -1.7272,2.8091 -1.7272,3.6698 0,2.3191 -47.8974,49.7909 -53.3333,52.8595 -6.9565,3.9268 -7.0176,3.9321 -6.0526,0.5234 0.6681,-2.3599 0.5533,-2.6622 -0.4542,-1.1963 -1.794,2.6099 -3.4153,0.8539 -1.8289,-1.9809 0.6831,-1.2207 1.4881,-2.0635 1.7889,-1.8728 0.8563,0.5428 12.2374,-6.868 15.3222,-9.9771 1.5265,-1.5385 4.5265,-4.3342 6.6667,-6.2127 7.2344,-6.3498 13.8912,-15.5664 13.8912,-19.2332 0,-1.2637 1.246,-2.0181 3.3333,-2.0181 2.372,0 3.3334,-0.722 3.3334,-2.5034 0,-1.3768 0.907,-3.2561 2.0155,-4.1761 2.9274,-2.4295 7.7546,-13.4858 7.4166,-16.9871 -0.1593,-1.65 0.2891,-3 0.9965,-3 1.6301,0 3.1565,3.8473 2.1637,5.4536 -0.4123,0.6672 -0.1143,1.213 0.6623,1.213 0.7766,0 1.4121,-0.5162 1.4121,-1.1472 0,-0.631 1.4819,-3.331 3.2931,-6 2.4868,-3.6646 2.8133,-4.8528 1.3333,-4.8528 -1.0779,0 -1.9598,-0.8564 -1.9598,-1.9032 0,-1.0468 -1.65,-3.2282 -3.6666,-4.8476 -2.3586,-1.8939 -3.0692,-3.1583 -1.9917,-3.544 0.9212,-0.3298 1.3116,-1.1874 0.8676,-1.9059 -1.1852,-1.9177 -5.8375,2.7495 -4.9767,4.9927 0.3957,1.0311 0.055,1.8747 -0.7566,1.8747 -3.2187,0 0.4069,-8.3993 4.7769,-11.0662 0.9609,-0.5865 1.7471,-1.6417 1.7471,-2.3449 0,-0.7033 1.8,-3.7635 4,-6.8005 4.9773,-6.871 5.3093,-10.9391 0.3991,-4.8907 -1.9805,2.4396 -6.3305,7.4657 -9.6667,11.1691 -3.3361,3.7034 -10.2657,11.4196 -15.3991,17.1471 -12.5633,14.0176 -12.8886,14.3419 -13.6353,13.5952 -0.9239,-0.9239 6.6902,-11.4129 8.3099,-11.4473 0.7376,-0.016 2.0723,-1.6801 2.9658,-3.6989 0.8936,-2.0187 3.6255,-5.7687 6.0709,-8.3333 2.4454,-2.5646 6.2073,-7.0629 8.3599,-9.9963 2.1525,-2.9333 4.2171,-5.6333 4.5879,-6 1.9766,-1.9543 6.8424,-12.456 9.4458,-20.3865 l 2.9669,-9.0379 -2.8988,-2.7006 c -1.6775,-1.5628 -2.479,-3.3693 -1.9025,-4.2878 0.548,-0.8729 0.8361,-2.5633 0.6403,-3.7564 -0.1959,-1.193 0.4698,-2.4861 1.4791,-2.8734 2.1529,-0.8261 2.8309,-9.7909 0.8339,-11.0251 -2.3881,-1.4759 -9.7437,3.0558 -14.5571,8.9684 -7.4774,9.185 -22.8609,25.6583 -25.1923,26.9769 -1.7645,0.9979 -1.7306,0.7449 0.1923,-1.4383 1.2833,-1.4571 2.3333,-3.1355 2.3333,-3.7297 0,-0.5943 3.2019,-4.747 7.1152,-9.2284 3.9133,-4.4813 8.236,-9.9478 9.606,-12.1478 1.3701,-2.2 4.6772,-6.7 7.3493,-10 8.7256,-10.7762 14.6762,-20 12.9025,-20 -3.0246,0 -7.4442,3.9317 -7.8818,7.0117 -0.2946,2.0742 -1.3459,2.9996 -3.437,3.0252 -4.102,0.05 -23.0989,20.1775 -29.1228,30.8555 -6.8266,12.1008 -15.1562,41.6058 -15.1823,53.7789 -0.012,5.6123 -1.0892,9.5508 -4.5805,16.7475 -4.835,9.9667 -7.557,19.3383 -10.0441,34.5812 -0.8376,5.1333 -3.8687,16.8333 -6.7358,26 -2.8671,9.1666 -5.7224,18.7542 -6.3451,21.3057 -0.9169,3.7572 -2.0043,4.8871 -5.7211,5.9442 -2.524,0.7179 -5.1891,1.7806 -5.9225,2.3615 -0.7333,0.5809 -2.7797,2.1596 -4.5475,3.5081 l -3.2143,2.452 2.8809,2.8809 c 1.5845,1.5845 2.8809,4.0809 2.8809,5.5476 0,3.1863 0.091,3.1729 -4.8421,0.7118 -3.4719,-1.732 -4.7493,-1.7107 -11.2049,0.1869 -4.0075,1.178 -9.6773,2.2077 -12.5996,2.2882 -3.9391,0.1085 -5.4307,0.7534 -5.7671,2.4933 -0.3136,1.6222 -1.5548,2.2722 -4.02,2.105 -5.2978,-0.3593 -9.3222,1.3454 -10.2768,4.3532 -0.6792,2.1396 -1.2245,2.3554 -2.7514,1.0882 -1.3406,-1.1127 -1.498,-2.07 -0.5315,-3.2345 0.755,-0.9098 1.0592,-2.4802 0.676,-3.4898 -0.5199,-1.3698 0.9,-1.9287 5.5953,-2.2023 6.6891,-0.3899 10.0562,-2.0325 14.6255,-7.135 16.3402,-18.2471 19.7084,-23.1023 29.4333,-42.4276 4.8231,-9.5844 9.2314,-15.6138 10.4933,-14.3519 0.7755,0.7755 -4.3633,20.3319 -6.7308,25.6145 -0.9859,2.2 -2.1997,6.8591 -2.6973,10.3536 l -0.9047,6.3535 4.3582,-2.4347 c 4.0143,-2.2426 4.6331,-3.5327 7.8429,-16.3536 1.9167,-7.6553 6.9859,-25.6188 11.265,-39.9188 4.2792,-14.3 9.5025,-32.6 11.6074,-40.6667 3.3995,-13.0281 5.0303,-18.6584 10.6202,-36.6667 0.7967,-2.5666 5.0514,-13.9666 9.4548,-25.3333 7.0298,-18.1459 11.4122,-28.3759 19.2979,-45.0477 3.2821,-6.9388 1.0072,-6.4904 -3.0929,0.6097 -2.0448,3.5409 -4.4976,6.9178 -5.4509,7.5043 -0.9532,0.5864 -1.7331,2.201 -1.7331,3.5879 0,3.3705 -2.4684,4.7472 -3.5337,1.9709 -1.0395,-2.7088 1.9683,-20.316 3.5675,-20.8832 0.6335,-0.2247 1.7139,-2.9258 2.4009,-6.0024 1.2452,-5.5761 1.2397,-5.5876 -1.7206,-3.6479 -1.6334,1.0702 -3.6494,3.4374 -4.48,5.2604 -0.8306,1.8231 -2.1231,3.3147 -2.8722,3.3147 -0.749,0 -1.3619,0.8358 -1.3619,1.8573 0,1.0216 -0.8247,2.1738 -1.8326,2.5606 -1.0079,0.3868 -4.9683,5.401 -8.8008,11.1426 -8.3053,12.4427 -12.9773,18.6209 -17.0333,22.5246 -1.65,1.588 -3,3.8474 -3,5.0209 0,1.1734 -1.0737,2.7081 -2.3861,3.4105 -1.3123,0.7023 -3.2137,2.8234 -4.2253,4.7136 -1.0115,1.8901 -2.3378,3.4365 -2.9472,3.4365 -2.4693,0 -0.9226,-9.8478 2.4756,-15.7625 4.7221,-8.219 16.3545,-21.7664 17.88,-20.8236 0.6617,0.4089 1.203,0.083 1.203,-0.7248 0,-0.8075 0.591,-2.193 1.3133,-3.0787 5.8656,-7.1929 8.2404,-10.5334 11.8966,-16.7344 2.3103,-3.9181 3.4331,-6.8714 2.4953,-6.5629 -0.9378,0.3085 -2.9063,2.6896 -4.3744,5.2914 -3.1898,5.6531 -6.5382,9.7427 -17.879,21.8367 l -8.5483,9.116 0.8964,-5.6059 c 1.2201,-7.6304 12.1787,-27.8909 21.1276,-39.0614 6.3369,-7.9101 2.7047,-11.2457 -5.4406,-4.9962 -1.7489,1.3418 -5.1728,2.4397 -7.6087,2.4397 -3.3188,0 -5.8638,1.3326 -10.1535,5.3167 -3.1486,2.9242 -7.054,5.3242 -8.6787,5.3333 -1.6247,0.01 -4.7185,1.7415 -6.8751,3.8496 -2.1565,2.1081 -5.7772,4.6546 -8.0459,5.6588 -2.2687,1.0042 -4.125,2.8113 -4.125,4.0157 0,1.5714 -1.6855,2.4425 -5.9689,3.0848 -3.2829,0.4923 -6.3276,1.4755 -6.766,2.1849 -0.4384,0.7093 -4.3524,2.876 -8.6977,4.8147 -4.3454,1.9388 -7.9007,4.0066 -7.9007,4.5952 0,0.5885 1.95,1.6331 4.3333,2.3212 l 4.3334,1.2512 -5.8093,0.1203 c -4.555,0.094 -5.6493,-0.2969 -5.068,-1.8117 1.2217,-3.1837 -4.8725,-0.2817 -6.6194,3.1521 -0.8232,1.6181 -2.7692,4.4055 -4.3245,6.1942 -1.5553,1.7888 -2.2318,3.2523 -1.5033,3.2523 0.7284,0 1.3245,0.9 1.3245,2 0,1.1111 1.1852,2 2.6666,2 3.0871,0 3.2874,1.0706 0.8107,4.3333 -1.3105,1.7263 -3.6853,2.3334 -9.1277,2.3334 -4.9125,0 -7.9079,0.6644 -9.0163,2 -0.9129,1.1 -2.5103,2 -3.5497,2 -1.0394,0 -4.416,1.3229 -7.5034,2.9397 -5.4184,2.8376 -6.3055,3.1992 -8.7347,3.5603 -1.8939,0.2815 -4.0058,13.5646 -4.057,25.5166 -0.054,12.6131 -2.7794,31.5108 -6.8263,47.334 -1.7628,6.8926 -2.682,14.9543 -2.7208,23.8627 -0.032,7.3993 -0.6157,17.9533 -1.2967,23.4533 -3.5649,28.7918 -4.3024,36.3443 -4.6221,47.3334 -0.3756,12.9147 -1.2944,16.6666 -4.0814,16.6666 -1.2366,0 -1.5898,-1.312 -1.1666,-4.3333 0.7525,-5.3716 3.8415,-37.8242 7.2024,-75.6667 1.4003,-15.7666 3.7782,-38.2666 5.2843,-50 1.5061,-11.7333 2.7384,-24.9744 2.7385,-29.4246 1e-4,-4.4503 0.9274,-11.2136 2.0606,-15.0296 1.1332,-3.816 1.6978,-7.5249 1.2547,-8.242 -1.6609,-2.6873 -6.8493,-1.2556 -9.771,2.6962 -2.119,2.8661 -4.068,4 -6.8755,4 -2.7165,0 -3.7091,0.545 -3.2364,1.7769 0.7377,1.9225 -5.9025,16.1973 -7.0164,15.0834 -0.3715,-0.3715 0.9249,-5.6671 2.881,-11.7679 3.3985,-10.5998 6.9698,-15.6587 11.104,-15.7294 3.647,-0.062 23.9116,-8.7745 30.5992,-13.1552 5.7287,-3.7526 7,-5.274 7,-8.3774 0,-3.9772 2.1758,-14.1585 4.2379,-19.8304 0.6665,-1.8333 3.552,-4.7827 6.4122,-6.5541 3.2468,-2.0109 6.5602,-5.7675 8.8202,-10 1.9909,-3.7286 4.7073,-8.8221 6.0363,-11.319 1.329,-2.4968 3.5748,-5.7968 4.9906,-7.3333 3.4307,-3.723 7.5699,-13.19366 9.5072,-21.75252 0.8771,-3.87501 2.2592,-6.82942 3.1187,-6.66667 0.9026,0.17091 1.5424,-1.43719 1.5407,-3.87236 0,-4.83232 -0.5274,-4.91048 14.6695,2.18744 5.8667,2.74012 16.0667,6.91819 22.6667,9.2846 6.6,2.36641 13.2,4.83614 14.6666,5.48828 6.4605,2.87256 15.4202,5.49937 25.016,7.33423 5.6922,1.0884 12.4548,3.2211 15.028,4.7394 2.6587,1.5686 5.8724,2.4483 7.4436,2.0374 1.5207,-0.3977 7.2258,0.245 12.678,1.4281 9.5961,2.0825 10.3699,2.0533 24.2071,-0.913 28.6027,-6.1317 41.3029,-9.37892 47.7322,-12.20442 3.609,-1.58607 11.9618,-4.54464 18.5618,-6.5746 32.181,-9.89787 66.657,-27.23158 103.3334,-51.95342 1.8333,-1.23577 7.7394,-4.58507 13.1245,-7.4429 5.3852,-2.85782 14.9852,-9.65921 21.3334,-15.1142 6.3481,-5.45498 16.3421,-13.4518 22.2087,-17.7707 5.8667,-4.3189 12.9956,-9.76707 15.8421,-12.10705 2.8465,-2.33998 7.4581,-5.81811 10.2481,-7.72916 6.406,-4.38798 20.7609,-16.7225 37.9098,-32.57421 7.3334,-6.77861 15.8296,-14.34069 18.8805,-16.80461 10.4042,-8.4024 49.0967,-48.44996 57.7862,-59.80996 4.7667,-6.23156 11.3667,-14.37158 14.6667,-18.08895 9.3661,-10.55073 13.4319,-16.0856 21.3995,-29.13168 4.0698,-6.66377 11.2739,-17.51595 16.0092,-24.11595 9.0158,-12.56613 10.9796,-15.52113 22.5953,-34 17.4907,-27.82532 25.9937,-42.66866 35.3147,-61.64735 12.6927,-25.84401 23.6602,-41.22993 43.894,-61.57732 20.2718,-20.38566 34.2134,-29.78161 57.4539,-38.72102 13.8298,-5.31958 15.3903,-5.78248 22.6667,-6.72353 3.6667,-0.47421 13.8667,-2.66605 22.6667,-4.87075 20.6489,-5.17327 42.4113,-6.37353 60.6666,-3.34593 25.9074,4.29667 53.2639,5.49948 118,5.1882 33.2594,-0.15993 51.5067,-2.64441 90.6667,-12.3448 50.9669,-12.6251 83.6178,-30.87697 122.5212,-68.48942 8.1813,-7.90986 14.8486,-12.23318 15.9978,-10.37364 0.9875,1.59766 -2.7388,11.65255 -8.1056,21.87239 -4.4054,8.38902 -8.2671,12.87827 -39.4086,45.81307 -4.2193,4.46228 -7.6715,8.51228 -7.6715,9 0,1.64925 3.7981,0.90095 19.5893,-3.8595 11.2177,-3.38173 24.1318,-8.95618 44.9191,-19.38972 16.0463,-8.05391 31.6463,-16.31969 34.6667,-18.3684 5.0499,-3.42531 13.8198,-8.16229 15.1115,-8.16229 1.0258,0 -1.2466,12.67537 -4.5117,25.16628 -3.5956,13.75527 -9.0264,26.83196 -16.7369,40.30047 -2.7709,4.84005 -5.038,9.24743 -5.038,9.79418 0,0.54675 -1.2654,2.77125 -2.8121,4.94335 -1.5466,2.17209 -2.4538,4.3075 -2.016,4.74536 0.4379,0.43786 7.5533,-2.05821 15.8121,-5.54682 22.8369,-9.64654 46.3352,-18.47719 67.2094,-25.25719 10.373,-3.36919 23.3538,-8.23026 28.8462,-10.80238 5.4924,-2.57212 10.404,-4.67658 10.9147,-4.67658 0.5107,0 5.2299,-2.17539 10.4871,-4.83419 5.2573,-2.65881 19.1587,-9.31397 30.892,-14.78924 31.5382,-14.71709 35.1921,-15.75009 30.1615,-8.52708 -1.3345,1.91611 -6.6734,11.71168 -11.8642,21.76793 -12.0298,23.30573 -18.8741,33.83477 -30.7131,47.24823 -5.2278,5.92297 -9.1486,11.12553 -8.7129,11.56123 0.4357,0.43571 3.094,-0.38209 5.9073,-1.81734 2.8133,-1.43525 5.7948,-2.60954 6.6256,-2.60954 1.3132,0 27.6105,-12.24953 43.2625,-20.15205 12.6205,-6.37196 26.7673,-13.85205 28,-14.80485 0.7333,-0.56687 8.6778,-6.31579 17.6543,-12.77538 18.9934,-13.66776 31.6048,-23.7188 40.9103,-32.60481 8.3291,-7.9537 16.2349,-13.4835 17.8499,-12.48537 0.7076,0.43728 0.7987,2.91943 0.2128,5.79374 -0.5638,2.7658 -1.6777,8.32872 -2.4754,12.36205 -0.7977,4.03333 -2.6036,10.03333 -4.013,13.33333 -1.4095,3.3 -3.856,10.20001 -5.4368,15.33334 -1.5807,5.13333 -4.2545,11.73333 -5.9416,14.66667 -1.6872,2.93333 -3.8243,7.73333 -4.7493,10.66666 -0.9249,2.93334 -2.361,6.23334 -3.1913,7.33334 -0.8303,1.1 -2.7044,4.4 -4.1648,7.33333 -1.4603,2.93333 -6.4508,10.33769 -11.0899,16.45412 -4.6391,6.11643 -8.1906,11.36492 -7.8923,11.66331 0.2984,0.29839 7.0941,-2.66296 15.1015,-6.58079 8.0074,-3.91782 19.0589,-8.78911 24.5589,-10.82508 5.5,-2.03597 13,-4.818 16.6667,-6.18228 3.6666,-1.36428 14.0671,-4.59218 23.112,-7.17313 42.1565,-12.02915 91.0046,-29.49824 148.7723,-53.20408 11.6698,-4.78885 21.6639,-8.4313 22.2091,-8.09434 1.3172,0.81412 -6.9379,20.24144 -13.573,31.94227 -14.4194,25.42809 -40.7313,55.31225 -76.3787,86.74825 -6.5221,5.75154 -11.284,10.64877 -10.5821,10.88273 0.7019,0.23397 5.9385,-1.72874 11.6369,-4.36156 21.0361,-9.71927 52.608,-17.62664 84.8106,-21.24127 22.1982,-2.49168 34.9146,-4.62085 54.6595,-9.15191 7.7,-1.767 20,-3.95389 27.3334,-4.85976 20.9766,-2.5912 33.5112,-5.07755 43.1148,-8.55227 4.8868,-1.76812 14.7596,-5.37089 21.9396,-8.00616 16.148,-5.92684 18.9036,-6.12853 17.6904,-1.2948 -0.8692,3.46324 -1.7964,5.39864 -9.2575,19.32484 -3.683,6.87423 -11.1209,18.44496 -12.7569,19.84524 -0.4284,0.36667 -5.268,6.66144 -10.7547,13.98838 -15.8762,21.20128 -13.5603,18.66176 -42.0304,46.0878 -18.0056,17.34535 -30.679,26.82526 -60.612,45.33885 -4.0333,2.49462 -12.295,8.14677 -18.3594,12.56033 -6.0643,4.41356 -12.9643,9.4107 -15.3333,11.10476 -6.6165,4.7314 -5.9157,5.83898 1.916,3.0281 3.9105,-1.40351 14.31,-4.25203 23.11,-6.33003 15.1056,-3.56698 17.6895,-3.77818 46.2223,-3.77818 16.6222,0 30.7172,0.495 31.3222,1.1 0.605,0.605 -0.015,1.72374 -1.3768,2.48608 -3.8721,2.16692 -30.2125,26.26735 -63.7696,58.34666 -20.8881,19.96819 -35.3983,29.4605 -75.7032,49.52384 -24.5205,12.20608 -26.968,13.7207 -24,14.85245 3.6135,1.37788 39.7953,3.45414 65.653,3.76744 10.3905,0.1259 17.9279,0.86434 20.7481,2.03269 4.2388,1.75603 4.7868,4.55751 0.8916,4.55751 -1.0203,0 -2.3417,0.86962 -2.9365,1.93249 -2.2341,3.99197 -41.2018,32.70351 -54.3844,40.07052 -18.8939,10.55874 -26.3186,14.07501 -36.6667,17.36489 -24.7694,7.87474 -47.1152,13.63071 -59.3333,15.2834 -5.1333,0.69437 -16.2333,2.23292 -24.6667,3.41901 -9.8399,1.38391 -27.2756,2.29801 -48.6666,2.55145 -18.3334,0.2172 -34.8334,0.98546 -36.6667,1.70723 -2.9545,1.16317 -1.5526,1.86834 12.3363,6.20514 23.7279,7.40898 41.071,16.95972 65.8737,36.27621 11.8707,9.24495 29.1233,26.33468 29.1233,28.84836 0,2.06322 -21.2009,7.11714 -40.6666,9.69423 -59.23,7.84147 -71.8049,8.75322 -108.2393,7.8479 -23.919,-0.59434 -34.6695,-0.4376 -33.7607,0.49224 0.7333,0.75035 5.14,4.39294 9.7926,8.09467 20.7248,16.4891 34.0071,32.3861 42.5106,50.8789 2.529,5.5 5.4549,11.6087 6.502,13.5749 1.0903,2.0474 1.3774,3.9002 0.672,4.3362 -0.6775,0.4187 -10.137,-0.7855 -21.0212,-2.6759 -25.4654,-4.4231 -34.6093,-5.4917 -55.7894,-6.5195 -17.1174,-0.8307 -34.4493,-3.0789 -51.3333,-6.6586 -4.7667,-1.0106 -14.0667,-2.8335 -20.6667,-4.0509 -20.5924,-3.7983 -23.7199,-4.7145 -34.0987,-9.9892 -18.9848,-9.6484 -29.5455,-16.3923 -49.8472,-31.8319 -5.837,-4.43902 -10.7649,-7.91872 -10.9509,-7.73267 -0.8121,0.81211 3.6048,14.31717 7.4313,22.72167 6.0716,13.3357 10.1871,26.2742 13.41,42.1593 1.5623,7.7 3.7628,17.1281 4.8901,20.9513 1.1273,3.8232 1.7043,7.5101 1.2821,8.1932 -0.4221,0.683 -4.2211,-0.4453 -8.4421,-2.5074 -4.221,-2.0621 -13.0746,-6.2921 -19.6746,-9.4 -6.6,-3.1079 -15.8113,-7.9576 -20.4696,-10.7772 -4.6583,-2.8197 -8.7354,-5.1266 -9.0602,-5.1266 -0.3248,0 -5.0364,-3 -10.4702,-6.6667 -5.4338,-3.6666 -10.2528,-6.6666 -10.7089,-6.6666 -2.49,0 -27.5128,-20.3556 -38.5715,-31.3772 -3.5528,-3.5409 -10.0579,-7.6379 -10.035,-6.3202 0.01,0.5669 1.2113,2.5307 2.6699,4.364 1.4587,1.8334 6.6537,9.6334 11.5445,17.3334 4.8909,7.7 10.8894,17.1016 13.3301,20.8926 2.4407,3.7909 4.4376,7.286 4.4376,7.7669 0,1.1886 10.6933,19.4636 12.9947,22.2081 2.6662,3.1795 0.1892,4.0095 -5.8108,1.9472 -2.8511,-0.9801 -8.4839,-2.8249 -12.5173,-4.0996 -4.0333,-1.2748 -13.8029,-5.5211 -21.7103,-9.4362 -7.9073,-3.9152 -20.5073,-9.064 -28,-11.4417 -14.433,-4.5803 -38.7241,-16.0192 -53.8515,-25.3593 -14.9417,-9.2255 -27.3349,-15.8153 -29.6228,-15.7512 -1.245,0.035 -0.6374,0.7358 1.4444,1.6666 4.6526,2.0803 13.5874,10.7058 20.7354,20.0178 5.4056,7.042 19.6931,18.358 25.5098,20.2041 2.0865,0.6622 16.0942,10.1425 20.0506,13.57 1.5022,1.3014 -2.4269,1.856 -23.0703,3.2563 -17.1565,1.1639 -24.906,1.1444 -33.2601,-0.084 -14.6185,-2.1486 -50.6029,-8.6787 -66.117,-11.9983 -6.9073,-1.4779 -12.735,-2.5107 -12.9507,-2.2951 -1.5974,1.5974 6.8774,10.3703 18.418,19.0659 7.5668,5.7015 14.0579,10.7362 14.4245,11.1883 0.3667,0.4521 2.9167,2.5115 5.6667,4.5765 2.75,2.0649 5,4.493 5,5.3957 0,2.2286 -64.1517,4.0098 -74.6667,2.0732 -4.0333,-0.7428 -10.6333,-1.735 -14.6666,-2.2048 -4.0334,-0.4698 -8.0547,-1.4226 -8.9363,-2.1172 -0.8816,-0.6947 -5.9816,-2.1428 -11.3333,-3.2181 -10.887,-2.1874 -31.1384,-8.8063 -38.6773,-12.6412 -5.8149,-2.9579 -8.6787,-3.3193 -6.7336,-0.8497 0.722,0.9167 1.683,3.2212 2.1355,5.1213 0.7696,3.2319 17.6598,32.0296 26.4154,45.0383 2.1568,3.2045 3.7333,6.0144 3.5034,6.2444 -0.458,0.458 -36.375,-4.3777 -39.6683,-5.3408 -1.1214,-0.3279 -4.7221,-0.9751 -8.0015,-1.4382 -3.2795,-0.4632 -8.3795,-1.6845 -11.3334,-2.7141 -2.9538,-1.0297 -7.0339,-1.8808 -9.0669,-1.8915 -2.0329,-0.011 -8.4696,-2.4194 -14.3037,-5.3527 -5.8341,-2.9334 -10.8471,-5.3334 -11.14,-5.3334 -1.0744,0 0.8178,12.9589 3.4071,23.3334 1.4642,5.8666 3.1495,13.9666 3.7451,18 0.5957,4.0333 1.5323,8.4655 2.0814,9.8492 0.896,2.2576 0.5318,2.4246 -3.5476,1.6266 -2.5003,-0.4891 -5.746,-0.8843 -7.2127,-0.8783 -14.5623,0.059 -34.9734,-5.2896 -48.4502,-12.6974 -4.6947,-2.5805 -8.914,-4.3152 -9.3761,-3.8548 -0.4622,0.4604 -1.1404,11.24 -1.507,23.9547 -0.3667,12.7146 -0.9947,23.4441 -1.3956,23.8432 -0.4009,0.3991 -3.4009,-0.077 -6.6666,-1.0578 -3.2658,-0.9809 -9.2378,-2.2107 -13.2712,-2.7329 -8.7254,-1.1296 -27.542,-5.7136 -30.9579,-7.5417 -2.065,-1.1052 -2.8265,-0.358 -5.1942,5.0971 -3.3744,7.7745 -7.8479,21.3975 -7.8479,23.8991 0,1.0045 -0.8695,1.8263 -1.9323,1.8263 -3.8171,0 -30.0457,-5.4439 -35.4996,-7.3681 -3.0635,-1.0809 -6.2744,-1.9652 -7.1353,-1.9652 -0.9491,0 -2.2226,4.5467 -3.2354,11.5512 -1.3838,9.571 -2.9136,15.0814 -4.8524,17.4788 -1.102,1.3626 -25.6121,-8.7674 -32.6783,-13.5059 -14.8966,-9.9895 -15.5099,-9.6892 -13.5025,6.6107 0.7133,5.7925 0.9561,13.4625 0.5395,17.0445 l -0.7576,6.5126 -9.6192,-0.8132 c -9.7424,-0.8235 -19.2436,-4.0723 -26.0192,-8.897 -6.9808,-4.9708 -8.3282,-3.8387 -10.0657,8.4577 -0.562,3.9772 -1.7082,6.7457 -2.9979,7.2406 -2.6285,1.0086 -33.7055,-3.4598 -35.7264,-5.137 -2.2584,-1.8743 -4.0534,1.2104 -5.115,8.7903 -0.5136,3.6667 -1.5605,9.2167 -2.3265,12.3333 -1.3912,5.6606 -1.3994,5.6667 -7.5678,5.6208 -3.5848,-0.027 -10.3211,-1.6812 -16.0591,-3.9443 -5.4362,-2.1442 -10.3275,-3.6244 -10.8695,-3.2894 -0.5421,0.335 -2.2732,4.9599 -3.847,10.2777 -1.5738,5.3177 -3.0929,10.3643 -3.3757,11.2147 -0.9207,2.7683 -21.2975,-3.264 -29.5981,-8.7621 -8.6944,-5.7588 -9.759,-5.4613 -9.759,2.7279 0,6.6624 -2.1545,16.699 -4.0627,18.926 -1.0008,1.168 -11.7567,-3.8492 -20.1272,-9.3886 -5.0469,-3.3398 -7.8101,-3.1922 -7.8101,0.4173 0,2.8056 -8.019,17.8667 -9.5128,17.8667 -2.9315,0 -15.5478,-7.3206 -20.0335,-11.6243 -2.6838,-2.575 -5.3862,-4.3687 -6.0054,-3.9861 -0.6192,0.3827 -2.6016,4.9516 -4.4053,10.1531 -1.8037,5.2015 -3.9012,9.3867 -4.6612,9.3005 -0.76,-0.086 -4.1453,-0.6242 -7.523,-1.1953 z m -157.1847,-277.9812 c 1.0488,-2.2 2.1093,-4.3991 2.3565,-4.8869 0.2473,-0.4878 -0.8003,-1.2835 -2.3278,-1.7683 -3.7529,-1.1912 -6.8645,2.6061 -13.4177,16.3745 -8.6287,18.1289 -8.0736,19.6828 2.2438,6.2807 5.081,-6.6 10.0963,-13.8 11.1452,-16 z m 2.4017,10.6314 c -0.4105,-0.4106 -1.156,0.3294 -1.6567,1.6444 -0.7236,1.9003 -0.5705,2.0534 0.7464,0.7464 0.9112,-0.9045 1.3209,-1.9803 0.9103,-2.3908 z m -53.0758,-43.2981 c 0,-0.7333 -0.2646,-1.3333 -0.588,-1.3333 -0.3233,0 -0.9588,0.6 -1.412,1.3333 -0.4532,0.7333 -0.1886,1.3333 0.588,1.3333 0.7766,0 1.412,-0.6 1.412,-1.3333 z m 32.6572,-1.3181 c 0.468,-0.7572 -0.07,-0.9785 -1.2649,-0.52 -1.1437,0.4389 -3.5538,-0.168 -5.3557,-1.3486 -3.5871,-2.3504 -12.0507,-2.9935 -10.7033,-0.8133 0.4533,0.7333 2.7387,1.3425 5.0787,1.3538 2.3401,0.011 5.1547,0.602 6.2547,1.3129 2.5842,1.67 4.9641,1.6761 5.9905,0.015 z m -51.3239,-1.9365 c 0,-0.3234 -0.6,-0.9588 -1.3333,-1.4121 -0.7333,-0.4532 -1.3333,-0.1886 -1.3333,0.588 0,0.7766 0.6,1.412 1.3333,1.412 0.7333,0 1.3333,-0.2646 1.3333,-0.5879 z m 16.6097,-6.5388 c 2.2515,-1.64638 2.0616,-1.85694 -2.3151,-2.56718 -7.2553,-1.17737 -12.2216,0.65573 -9.4057,3.47168 1.5485,1.5485 9.1705,0.9603 11.7208,-0.9045 z m -15.2763,-6.2066 c 0,-0.73333 -0.1585,-1.33333 -0.3522,-1.33333 -0.1937,0 -3.4645,-1.1376 -7.2684,-2.528 -4.8722,-1.78084 -7.081,-2.07639 -7.4737,-1 -0.4141,1.13548 -1.2566,1.11597 -3.2796,-0.0759 -2.208,-1.30091 -2.8627,-1.23794 -3.4657,0.33333 -0.4854,1.26489 0.1147,1.93725 1.729,1.93725 1.3598,0 4.191,0.89631 6.2915,1.99179 4.3073,2.2464 13.8191,2.71093 13.8191,0.67488 z m -36,-12 c 0,-0.73333 -0.6354,-1.33333 -1.412,-1.33333 -0.7767,0 -1.0412,0.6 -0.588,1.33333 0.4532,0.73333 1.0886,1.33333 1.412,1.33333 0.3234,0 0.588,-0.6 0.588,-1.33333 z m -181.3334,320 c 0,-0.7333 0.9,-1.3333 2,-1.3333 1.1,0 2,0.6 2,1.3333 0,0.7333 -0.9,1.3333 -2,1.3333 -1.1,0 -2,-0.6 -2,-1.3333 z m 122.0298,-26.551 c -2.5614,-1.0007 -2.5518,-1.0758 0.3333,-2.6198 1.6337,-0.8743 2.9703,-2.1617 2.9703,-2.8608 0,-3.2598 28.2764,-58.1115 31.7449,-61.5799 0.8736,-0.8737 1.5884,-2.1619 1.5884,-2.8626 0,-0.7008 1.3949,-3.1308 3.0999,-5.4 1.7049,-2.2693 4.5549,-6.8236 6.3333,-10.1209 1.7784,-3.2972 4.6275,-7.4972 6.3313,-9.3333 1.7038,-1.8361 4.8826,-5.8884 7.064,-9.005 3.1615,-4.5168 4.7745,-5.6667 7.9491,-5.6667 3.5246,0 3.8241,-0.2968 2.6027,-2.579 -0.7592,-1.4185 -1.3381,-3.3685 -1.2866,-4.3333 0.052,-0.9649 0.54,-0.6171 1.0855,0.7728 0.8189,2.0869 1.6148,1.2737 4.5674,-4.6666 1.9666,-3.9567 4.1282,-8.0939 4.8036,-9.1939 2.2743,-3.7044 5.4498,-11.7203 5.4498,-13.7571 0,-1.1114 0.45,-2.2207 1,-2.4651 1.208,-0.5369 7.6814,-13.7812 9.0151,-18.4445 0.5244,-1.8333 2.3314,-6.0333 4.0156,-9.3333 1.6842,-3.3 3.8663,-8.1 4.8491,-10.6667 2.8969,-7.5655 20.0155,-40.627 21.2866,-41.1111 0.6418,-0.2444 1.1669,-1.1898 1.1669,-2.1009 0,-0.911 1.4493,-3.0179 3.2206,-4.682 1.7713,-1.664 3.5827,-4.4686 4.0254,-6.2324 0.4427,-1.7638 1.4576,-3.2069 2.2554,-3.2069 0.7979,0 1.0851,0.9525 0.6384,2.1166 -0.4467,1.1641 -1.1816,4.427 -1.6332,7.251 -0.4516,2.8239 -1.6503,5.4527 -2.6638,5.8416 -1.0135,0.3889 -1.8428,1.9259 -1.8428,3.4156 0,1.4897 -0.5672,2.7085 -1.2605,2.7085 -1.367,0 -2.9504,2.7061 -9.3619,16 -2.299,4.7667 -4.7494,9.7086 -5.4454,10.9819 -0.696,1.2734 -1.2655,3.488 -1.2655,4.9214 0,1.4333 -0.5921,2.972 -1.3158,3.4192 -0.7237,0.4473 -2.2662,4.0823 -3.4277,8.0778 -1.1615,3.9956 -2.8728,8.0256 -3.8028,8.9556 -1.9345,1.9344 -3.6587,9.2616 -1.9277,8.1918 0.6274,-0.3878 1.1407,0.2658 1.1407,1.4523 0,1.1866 -0.5441,1.8212 -1.209,1.4102 -0.665,-0.4109 -0.9006,0.4322 -0.5237,1.8736 0.3823,1.4618 -0.2823,3.5883 -1.5029,4.809 -1.2644,1.2643 -1.8565,3.2335 -1.4025,4.664 0.4322,1.3617 0.1811,3.6057 -0.5579,4.9866 -0.7391,1.3809 -1.6254,4.0641 -1.9697,5.9626 -0.3442,1.8985 -1.5376,5.4413 -2.6519,7.8729 -1.1143,2.4316 -2.7238,7.1178 -3.5767,10.4136 -2.1831,8.4365 -6.243,16.0562 -10.838,20.3409 -2.1628,2.0166 -4.2155,3.6666 -4.5616,3.6666 -1.1775,0 -8.5395,8.0861 -8.5395,9.3793 0,0.7081 -0.53,1.2874 -1.1778,1.2874 -0.6478,0 -1.5304,1.05 -1.9613,2.3333 -0.8624,2.5686 -3.3897,6.666 -5.6521,9.1635 -0.8018,0.8852 -2.2246,3.4605 -3.1617,5.723 -0.9372,2.2624 -2.1834,4.1135 -2.7695,4.1135 -0.5861,0 -1.4609,1.7993 -1.9439,3.9984 -0.483,2.1991 -1.9783,4.7689 -3.3228,5.7107 -1.3446,0.9417 -3.4636,4.0925 -4.7088,7.0016 -1.2453,2.9091 -3.2201,7.2912 -4.3885,9.738 -1.1684,2.4468 -2.2457,5.2752 -2.3939,6.2853 -0.3482,2.3722 -5.7225,9.9327 -7.0606,9.9327 -0.5642,0 -2.155,3.3216 -3.5349,7.3813 -1.7499,5.1482 -3.3282,7.5653 -5.2166,7.9892 -16.2255,3.6429 -15.0177,3.5085 -18.6778,2.0785 z m 90.8811,-137.699 c -0.4257,-1.0636 -0.7416,-0.7477 -0.8056,0.8056 -0.058,1.4055 0.2572,2.193 0.7003,1.75 0.4431,-0.4431 0.4904,-1.5931 0.1053,-2.5556 z m -101.6456,136.1399 c -0.4768,-0.7715 0.3867,-1.7305 1.9189,-2.1312 1.5322,-0.4007 2.5067,-1.1801 2.1656,-1.7321 -0.3411,-0.5519 0.5061,-2.0228 1.8827,-3.2686 1.8228,-1.6497 2.7663,-1.8387 3.4727,-0.6958 0.5334,0.8631 0.2417,2.0193 -0.6482,2.5693 -0.8899,0.55 -1.5668,1.3829 -1.5042,1.8509 0.4363,3.2602 -0.2877,4.3026 -3.1533,4.5397 -1.797,0.1488 -3.6574,-0.3608 -4.1342,-1.1322 z m 62.0681,-1.3019 c 0,-1.51 0.6,-2.3745 1.3333,-1.9213 0.7333,0.4532 1.3333,1.6886 1.3333,2.7453 0,1.0568 -0.6,1.9213 -1.3333,1.9213 -0.7333,0 -1.3333,-1.2354 -1.3333,-2.7453 z m -109.474,-8.0735 c -4.0543,-1.4879 -7.2675,-7.3479 -5.3174,-9.6976 0.7081,-0.8532 1.4759,-4.536 1.7061,-8.1841 0.2433,-3.8557 0.9769,-6.3537 1.7519,-5.9661 0.7334,0.3666 1.1731,3.6666 0.9771,7.3333 -0.4457,8.3411 0.5421,12.6667 2.8928,12.6667 1.0005,0 2.1329,1.2 2.5165,2.6666 0.771,2.9485 0.489,3.0221 -4.527,1.1812 z m 11.104,-0.5901 c -4.0688,-2.8499 -3.85,-7.759 0.4327,-9.7104 5.0732,-2.3114 7.1668,-1.9005 8.8217,1.7314 1.1963,2.6256 1.0516,3.9536 -0.726,6.6667 -2.5678,3.9188 -4.4037,4.2013 -8.5284,1.3123 z m -26.9634,-4.7698 c -1.8333,-0.7387 -6.573,-1.9477 -10.5326,-2.6866 -3.9596,-0.7389 -12.5637,-3.0965 -19.1202,-5.2391 -6.5565,-2.1425 -13.0857,-3.8956 -14.5092,-3.8956 -3.5481,0 -4.3119,-2.7816 -1.9918,-7.2535 1.9351,-3.7301 1.6095,-7.4131 -0.6555,-7.4131 -0.6549,0 -1.1907,-0.8439 -1.1907,-1.8752 0,-1.1724 0.9305,-1.6319 2.4828,-1.2259 1.4898,0.3896 2.8063,-0.1937 3.2915,-1.4582 0.4448,-1.1591 0.2275,-2.1074 -0.4828,-2.1074 -0.7103,0 -1.291,-1.65 -1.2904,-3.6667 0,-5.3062 3.9389,-23.4437 5.4125,-24.9333 0.6892,-0.6967 1.2531,-4.1467 1.2531,-7.6667 0,-4.5582 0.5305,-6.4 1.8434,-6.4 1.327,0 2.1145,2.8938 2.8114,10.3308 0.6304,6.7273 1.8477,11.5662 3.49,13.8725 1.387,1.948 2.5219,4.5395 2.5219,5.7591 0,1.6606 0.7532,2.0055 3,1.3735 1.6809,-0.4728 2.3281,-0.3658 1.4719,0.2435 -0.8404,0.598 -2.2195,5.8873 -3.0646,11.754 -0.8452,5.8666 -2.0806,12.1666 -2.7454,14 -2.0822,5.7418 -2.0808,8.3494 0,8.6992 13.4354,2.2537 14.6667,2.2637 14.6667,0.1188 0,-1.4059 1.155,-2.1514 3.3333,-2.1514 1.8334,0 3.3334,0.6378 3.3334,1.4172 0,0.7794 1.0723,1.2355 2.383,1.0134 3.0406,-0.5151 8.9758,4.1156 10.1939,7.9534 1.0457,3.2947 -0.4173,3.6505 -5.9103,1.4373 z m 192.8268,-6.8635 c 6.1289,-6.7636 14.0036,-13.2385 14.9497,-12.2924 1.0367,1.0367 -16.1884,18.0013 -18.2778,18.0013 -1.0532,0 0.3752,-2.4503 3.3281,-5.7089 z m -211.9756,-5.6244 c 0.4221,-1.1 1.3033,-2 1.9582,-2 0.6548,0 1.1906,0.9 1.1906,2 0,1.1 -0.8811,2 -1.9581,2 -1.1928,0 -1.6582,-0.7817 -1.1907,-2 z m 191.1488,-6.6953 c 0,-2.3374 2.6923,-4.0103 5.6667,-3.521 1.2833,0.2112 2.3333,-0.2892 2.3333,-1.1119 0,-0.8227 0.6,-1.1251 1.3334,-0.6718 2.4694,1.5262 1.3614,2.9178 -4,5.0238 -4.3601,1.7127 -5.3334,1.764 -5.3334,0.2809 z m -157.228,-5.4158 c 0.064,-1.5533 0.3799,-1.8692 0.8055,-0.8056 0.3852,0.9625 0.3378,2.1125 -0.1052,2.5556 -0.4431,0.443 -0.7582,-0.3445 -0.7003,-1.75 z m 171.8947,1.0855 c 0,-0.5641 3.75,-3.0694 8.3333,-5.5675 4.5834,-2.4981 10.2218,-5.9608 12.5298,-7.6949 4.4914,-3.3747 12.1315,-6.0787 13.968,-4.9437 1.3103,0.8097 -7.1471,8.565 -9.3404,8.565 -0.8199,0 -1.4907,0.5204 -1.4907,1.1563 0,1.0124 -20.6118,9.5104 -23.0671,9.5104 -0.5131,0 -0.9329,-0.4615 -0.9329,-1.0256 z M 2464.7552,1221 c -0.272,-0.9166 -1.2531,-4.6666 -2.1801,-8.3333 -0.9271,-3.6667 -4.3332,-12.3667 -7.569,-19.3333 -7.7577,-16.7019 -7.8415,-16.8932 -10.9276,-24.9438 -1.464,-3.8191 -5.305,-12.2191 -8.5355,-18.6667 -3.2306,-6.4476 -8.0718,-17.7229 -10.7582,-25.0562 -6.3684,-17.384 -8.6949,-23.272 -10.8,-27.3333 -3.1728,-6.1215 -5.9276,-17.9124 -6.1576,-26.3553 -0.279,-10.2433 0.8461,-12.0821 1.9078,-3.118 0.7903,6.6729 3.7932,15.8291 14.6951,44.8066 8.3627,22.2284 14.6783,35.3472 20.1966,41.952 2.5887,3.0985 4.7067,6.5123 4.7067,7.5862 0,1.0739 0.539,1.6194 1.1978,1.2123 1.4117,-0.8726 9.4689,6.3186 9.4689,8.4511 0,0.8058 0.53,1.4651 1.1778,1.4651 0.6478,0 1.5874,1.35 2.0879,3 3.2638,10.759 5.9388,46.3333 3.484,46.3333 -0.825,0 -1.7226,-0.75 -1.9946,-1.6667 z m 106.1113,-8.6517 c -0.1155,-6.3534 -1.3594,-15.2122 -2.9501,-21.0104 -1.5127,-5.5138 -2.5254,-11.9705 -2.2503,-14.3482 0.4939,-4.2691 0.5137,-4.2524 1.5874,1.3437 0.5981,3.1166 1.6107,5.6666 2.2503,5.6666 0.6396,0 1.2051,1.35 1.2567,3 0.089,2.8626 0.1462,2.8778 1.2396,0.3334 0.6302,-1.4667 1.1972,-8.3667 1.26,-15.3334 0.107,-11.872 1.4189,-17.7654 3.4931,-15.6913 0.494,0.494 0.2266,8.438 -0.5942,17.6533 -0.8207,9.2153 -1.4923,22.4437 -1.4923,29.3966 0,6.9528 -0.5601,12.6414 -1.2447,12.6414 -0.6847,0 -1.4948,1.65 -1.8003,3.6667 -0.3055,2.0167 -0.6453,-1.2766 -0.7552,-7.3184 z m 183.8002,-5.6816 c 0,-0.7333 0.6355,-1.3333 1.4121,-1.3333 0.7766,0 1.0412,0.6 0.5879,1.3333 -0.4532,0.7333 -1.0886,1.3333 -1.412,1.3333 -0.3234,0 -0.588,-0.6 -0.588,-1.3333 z m -0.5379,-3.7917 c -0.4614,-0.7465 -0.1892,-1.7589 0.6049,-2.2497 2.05,-1.2669 3.3726,0.4685 1.6613,2.1798 -0.9576,0.9576 -1.7034,0.9806 -2.2662,0.07 z m -325.1856,-16.5416 c -5.6122,-5.2709 -15.0867,-20.0491 -18.7381,-29.2274 -2.9,-7.2894 -3.5141,-10.8979 -3.4039,-20 l 0.1345,-11.106 2.3184,12 c 2.2952,11.8797 9.4717,29.209 13.5281,32.6667 0.4301,0.3667 2.4073,3.4658 4.3937,6.8869 1.9864,3.4211 4.4844,6.9445 5.5512,7.8299 1.0668,0.8853 1.9396,2.1363 1.9396,2.7798 0,2.0436 -2.4246,1.2683 -5.7235,-1.8299 z m 161.6026,-2.4263 c -1.0335,-0.6487 -2.9291,-0.8528 -4.2124,-0.4534 -1.9112,0.5947 -2.3333,-0.105 -2.3333,-3.8672 0,-5.8018 2.6326,-8.0987 7.9454,-6.9318 3.6527,0.8023 4.0546,1.3945 4.0546,5.9753 0,5.3192 -2.1199,7.3702 -5.4543,5.2771 z m 164.1209,-11.7438 c 0,-0.6435 0.9,-1.917 2,-2.8299 1.671,-1.3868 2,-1.1943 2,1.17 0,1.6266 -0.8504,2.83 -2,2.83 -1.1,0 -2,-0.5266 -2,-1.1701 z M 2451.5266,1158 c -0.5728,-2.2 -2.2636,-7.3 -3.7575,-11.3333 -1.5263,-4.1212 -2.9733,-11.9735 -3.3034,-17.9268 -0.3231,-5.8264 -1.4073,-12.4264 -2.4093,-14.6667 -1.0021,-2.2402 -2.5533,-7.3732 -3.4471,-11.4065 -0.8938,-4.0333 -2.2411,-8.1088 -2.994,-9.0565 -0.9245,-1.1638 -0.9303,-2.1617 -0.018,-3.0742 0.9125,-0.9124 1.8971,0.08 3.0332,3.0565 0.9252,2.4242 2.4546,6.2075 3.3988,8.4075 0.9441,2.2 2.7402,6.4 3.9913,9.3334 1.4369,3.3687 2.3745,9.508 2.5454,16.6666 0.167,6.9973 1.1668,13.6693 2.613,17.4387 1.3101,3.4147 2.1323,8.4094 1.8657,11.3334 L 2452.568,1162 Z m 108.4735,-8.6666 c 0,-4.4445 0.5926,-8 1.3333,-8 0.7408,0 1.3333,3.5555 1.3333,8 0,4.4444 -0.5925,8 -1.3333,8 -0.7407,0 -1.3333,-3.5556 -1.3333,-8 z m 234.6871,5 c -0.023,-2.6147 3.3061,-3.1684 4.7735,-0.794 0.6195,1.0022 0.3623,1.1752 -0.737,0.4958 -0.9836,-0.6079 -2.1743,-0.2764 -2.8523,0.794 -0.9204,1.4533 -1.1681,1.3496 -1.1842,-0.4958 z m -216.8794,-13.5499 c 0.4488,-7.269 0.1883,-17.2616 -0.5788,-22.2057 -0.7671,-4.9441 -1.2074,-11.5967 -0.9785,-14.7835 l 0.4162,-5.7943 2.4445,4.6667 c 3.284,6.2694 4.2647,21.8695 2.3057,36.676 -2.2789,17.2243 -4.6417,18.1676 -3.6091,1.4408 z m 182.1923,-21.3287 c 0,-0.2539 0.9,-1.2085 2,-2.1214 1.1528,-0.9568 2,-1.0863 2,-0.3059 0,0.7446 -0.9,1.6993 -2,2.1214 -1.1,0.4221 -2,0.5597 -2,0.3059 z m -154,-16.7881 c -0.4532,-0.7333 -0.2241,-1.3333 0.5093,-1.3333 0.7333,0 1.7041,0.6 2.1573,1.3333 0.4533,0.7333 0.2241,1.3333 -0.5092,1.3333 -0.7334,0 -1.7042,-0.6 -2.1574,-1.3333 z m 154.0296,0.2073 c -0.036,-2.1528 11.107,-19.0126 14.7357,-22.2966 4.9163,-4.4492 2.8914,1.3686 -3.3446,9.6093 -9.424,12.4536 -11.3593,14.6091 -11.3911,12.6873 z M 2433.3538,1085 c 0.017,-2.4259 0.2678,-2.6172 1.3129,-1 1.6706,2.585 1.6706,4 0,4 -0.7333,0 -1.3241,-1.35 -1.3129,-3 z m -1.2485,-5.7777 c 0.064,-1.5533 0.38,-1.8692 0.8056,-0.8056 0.3852,0.9625 0.3378,2.1125 -0.1053,2.5556 -0.443,0.443 -0.7582,-0.3445 -0.7003,-1.75 z m 166.5819,-2.8889 c 0.032,-3.6683 1.9864,-5.8362 4.4195,-4.9025 1.2247,0.4699 2.2076,1.2402 2.1843,1.7118 -0.084,1.6995 -3.6182,5.524 -5.1046,5.524 -0.8358,0 -1.5105,-1.05 -1.4992,-2.3333 z m -18.2678,-12.6667 c -3.4065,-5.3167 -7.9775,-11.9579 -10.1577,-14.7583 -3.3173,-4.2608 -4.0732,-6.6539 -4.6328,-14.6666 -0.3677,-5.2663 -1.2721,-9.9645 -2.0097,-10.4405 -0.7376,-0.476 -0.909,-1.976 -0.381,-3.3334 0.8954,-2.3019 1.1338,-2.2548 3.5445,0.7007 1.4215,1.7428 2.9542,4.7428 3.4061,6.6667 0.4519,1.9239 1.8699,5.5981 3.1513,8.1647 2.8065,5.6218 14.1118,31.718 15.1626,35 1.7066,5.3305 -2.2961,1.6991 -8.0833,-7.3333 z m 131.2473,7.3924 c 1.65,-0.3178 4.35,-0.3178 6,0 1.65,0.3178 0.3,0.5778 -3,0.5778 -3.3,0 -4.65,-0.26 -3,-0.5778 z m -247.5729,-3.0145 c -0.052,-1.8088 -1.0859,-5.8867 -2.2985,-9.0619 -1.6283,-4.2636 -1.814,-6.1639 -0.7104,-7.2675 1.7248,-1.7248 2.1088,-0.9119 3.9419,8.3447 0.66,3.3329 0.7412,7.2329 0.1804,8.6667 -0.9073,2.3194 -1.03,2.2442 -1.1134,-0.682 z m 142.5729,-2.6842 c 0,-7.1538 -3.7642,-16.5492 -5.9152,-14.764 -1.8982,1.5753 -6.4084,-1.2353 -11.4181,-7.1154 -3.3041,-3.8782 -5.8672,-8.8143 -4.5768,-8.8143 1.8432,0 7.2435,4.5312 7.2435,6.0777 0,0.9741 1.3335,2.7051 2.9633,3.8467 3.4513,2.4174 5.5909,2.7178 4.2829,0.6013 -0.5012,-0.8109 -0.8244,-5.6976 -0.7183,-10.8594 0.2486,-12.0928 -3.0433,-17.325 -15.8613,-25.2098 -7.5554,-4.6477 -14.6666,-12.06788 -14.6666,-15.30391 0,-1.78884 -1.0483,-3.30561 -2.632,-3.80826 -1.4477,-0.45946 -3.8953,-2.60945 -5.4393,-4.77777 -2.5193,-3.53801 -2.6596,-4.63079 -1.368,-10.65344 0.7916,-3.69108 1.4393,-8.75328 1.4393,-11.24935 0,-4.89123 2.3948,-11.33044 4.214,-11.33044 0.6156,0 1.1193,-0.96677 1.1193,-2.14839 0,-1.74605 -0.9364,-1.98789 -5,-1.29137 -2.75,0.47136 -7.1,1.67896 -9.6667,2.68356 -9.034,3.53596 -19.8557,5.26384 -24.9276,3.98015 -5.9299,-1.50084 -9.9014,-8.23376 -9.9081,-16.79729 0,-3.16799 -0.9255,-8.64569 -2.0512,-12.17266 -1.2544,-3.93 -1.7095,-8.21051 -1.1756,-11.05647 0.7161,-3.81672 0.2486,-5.38375 -2.6247,-8.79844 -2.4486,-2.91006 -3.2687,-5.08996 -2.7377,-7.27687 0.4171,-1.71722 1.1006,-4.53188 1.5191,-6.25479 0.6248,-2.57248 0.02,-3.43956 -3.3843,-4.84954 -9.0994,-3.7691 -9.06,-13.95787 0.1033,-26.68456 3.1559,-4.38315 3.766,-10.6311 1.1868,-12.154 -1.1,-0.64951 -3.8,-1.8764 -6,-2.72642 l -4,-1.54548 3.9838,-0.79732 c 5.1259,-1.02594 5.7412,-4.41744 1.4183,-7.81784 -4.2002,-3.30386 -4.4232,-8.3252 -0.6417,-14.44391 2.7936,-4.52015 2.5402,-7.1817 -0.6839,-7.1817 -2.5517,0 -11.1521,-9.94218 -13.6031,-15.72537 -1.1518,-2.71771 -3.77,-8.58209 -5.8183,-13.03196 -6.1632,-13.38951 -6.7651,-30.98019 -0.8932,-26.10699 1.2632,1.04835 1.6365,-0.009 1.6082,-4.55314 -0.042,-6.81972 -2.2939,-8.49024 -3.4808,-2.58254 -0.6551,3.26062 -0.9927,3.56679 -1.8264,1.65637 -0.6539,-1.49838 -0.1283,-3.66231 1.4572,-6 1.7328,-2.55483 2.4799,-6.05571 2.4799,-11.62062 0,-6.69227 0.3953,-8.04317 2.475,-8.45838 3.4572,-0.69023 6.1439,2.13744 3.5525,3.73899 -1.0726,0.66292 -1.5102,1.64532 -0.9724,2.1831 0.5377,0.53778 2.6328,-0.24587 4.6557,-1.74144 2.6041,-1.92532 4.9755,-2.52878 8.1224,-2.06692 4.2519,0.62405 4.3753,0.52302 2.8471,-2.33243 -1.2881,-2.4067 -1.1716,-4.09984 0.6015,-8.74258 2.0756,-5.43482 2.4414,-5.71851 6.5205,-5.05657 2.9972,0.48639 4.8632,0.0485 6.0895,-1.42912 2.2282,-2.68475 7.2639,-2.7543 9.4416,-0.1304 0.9498,1.1445 3.8572,2 6.7969,2 5.0352,0 5.1098,-0.0717 3.7628,-3.61462 -1.78,-4.68169 -0.5815,-9.25643 2.9152,-11.1278 2.2818,-1.2212 3.3282,-0.96788 5.8714,1.42129 1.7021,1.59904 3.461,4.36675 3.9087,6.15046 0.7985,3.18165 0.8753,3.19821 4.0492,0.87356 1.7794,-1.30325 3.9367,-4.01956 4.794,-6.03622 1.0361,-2.43749 2.5551,-3.66667 4.5312,-3.66667 1.635,0 4.9179,-0.67812 7.2955,-1.50694 3.4837,-1.21442 5.8079,-1.05727 11.9737,0.80959 7.2434,2.19312 8.178,2.19475 17.5429,0.0306 11.4908,-2.6555 18.1026,-5.33776 18.9269,-7.67822 0.4179,-1.18684 1.674,-0.8764 4.4405,1.09745 7.052,5.03151 17.1173,9.13858 23.1911,9.46298 3.3,0.17625 9.9,1.61836 14.6666,3.20468 15.3018,5.09235 17.4842,5.52674 23.3482,4.64737 6.4814,-0.97194 15.5954,1.98779 15.0051,4.87281 -0.2125,1.03872 0.9635,1.73683 2.9524,1.75261 2.4046,0.0191 4.0522,1.35727 6.0449,4.90961 1.5065,2.68587 3.8255,6.08377 5.1533,7.5509 2.8472,3.1461 2.2521,8.05144 -2.178,17.95272 l -2.8811,6.43945 3.5336,6.28611 c 4.125,7.33812 8.217,18.75073 7.1174,19.8503 -0.4193,0.41936 -0.7624,-0.0375 -0.7624,-1.01531 0,-0.97778 -0.3892,-1.38864 -0.8648,-0.91303 -0.4756,0.47562 0.5744,3.59286 2.3334,6.92721 2.7222,5.16042 2.9077,6.24341 1.2469,7.27867 -1.6948,1.05637 -1.651,1.84588 0.3333,6.00692 3.0376,6.37002 3.0038,6.69396 -2.3822,22.79193 -2.5666,7.67148 -4.6666,15.10378 -4.6666,16.5162 0,1.41243 -0.5366,2.89971 -1.1925,3.30505 -0.6559,0.40535 -1.4588,2.99076 -1.7842,5.74536 -0.3255,2.7546 -1.0228,5.97951 -1.5496,7.16646 -0.6765,1.52414 -0.1524,2.36875 1.7842,2.87518 1.5081,0.39438 2.7421,1.29142 2.7421,1.99341 0,1.5898 -6.6159,8.30664 -8.1818,8.30664 -0.6334,0 -1.1516,0.6 -1.1516,1.33334 0,1.84639 4.4578,1.67553 6.3778,-0.24445 0.8678,-0.86778 2.0378,-1.11673 2.6,-0.55324 0.5622,0.5635 -0.6612,2.4735 -2.7188,4.24445 l -3.741,3.2199 h 3.329 c 1.831,0 3.6998,-0.6 4.153,-1.33333 0.4533,-0.73333 1.7621,-1.33333 2.9087,-1.33333 1.7017,0 1.7797,0.36726 0.4247,2 -0.9129,1.1 -2.4864,2 -3.4966,2 -1.0102,0 -1.836,0.45 -1.835,1 9e-4,0.55 -2.4772,1 -5.507,1 -3.5871,0 -5.9817,0.74192 -6.8647,2.12696 -1.8103,2.83946 -0.1219,9.10629 2.743,10.18083 1.2615,0.47316 2.9489,1.7341 3.7498,2.80209 1.2384,1.65133 1.7549,1.51537 3.453,-0.90889 1.0981,-1.56788 2.3523,-2.49511 2.7869,-2.0605 0.88,0.88003 -3.958,10.78529 -5.8342,11.94485 -0.6574,0.40629 -1.2024,2.05329 -1.2113,3.66001 -0.01,1.60672 -1.5088,5.53256 -3.3333,8.72408 -3.482,6.09093 -4.2264,8.91649 -1.984,7.53057 3.8655,-2.389 -1.6283,9.12149 -5.7221,11.98892 -1.5792,1.10609 -4.5951,2.01108 -6.702,2.01108 -2.107,0 -5.5122,1.19725 -7.5673,2.66055 -2.6948,1.91892 -4.8893,2.42996 -7.8725,1.83333 -2.4705,-0.4941 -4.1361,-0.27771 -4.1361,0.53739 0,1.92657 7.4309,15.82453 10.6471,19.91327 1.9923,2.53277 2.6863,5.41515 2.6863,11.15658 0,4.25783 -0.5393,8.07481 -1.1985,8.48218 -0.6591,0.40738 -2.1907,5.20099 -3.4036,10.65248 -1.2128,5.45148 -3.636,11.90358 -5.3849,14.33798 -1.7488,2.4344 -5.1557,7.8762 -7.5708,12.0929 -2.4151,4.2166 -4.8526,7.6666 -5.4167,7.6666 -0.564,0 -1.0255,0.9702 -1.0255,2.1561 0,1.1858 -2.25,4.3415 -5,7.0126 -7.4789,7.2643 -13.4342,17.0376 -14.4306,23.6818 -0.7071,4.715 -1.6641,6.3138 -4.728,7.8982 -3.8683,2.0004 -4.5054,1.5357 -3.9818,-2.9041 0.097,-0.8189 -0.7323,-2.2423 -1.842,-3.1633 -3.3669,-2.7943 -2.3816,-4.6535 6.7333,-12.7055 5.2523,-4.6398 10.0974,-10.3875 12.1187,-14.3762 3.3632,-6.637 3.3642,-6.6504 0.7744,-10.1227 -5.02,-6.7304 -6.2629,-5.6128 -16.272,14.6323 -5.1546,10.4261 -9.3759,19.6167 -9.3806,20.4237 -0.011,1.8977 -10.4823,14.1338 -12.0952,14.1338 -0.6762,0 -1.2296,-2.3879 -1.2296,-5.3063 z m 86,-136.02704 c 2.3715,-2.62045 2.3289,-2.66666 -2.46,-2.66666 -2.6803,0 -4.8733,0.25092 -4.8733,0.55761 0,0.30669 -0.3642,1.50669 -0.8093,2.66667 -1.216,3.16894 5.1657,2.73192 8.1426,-0.55762 z M 2501.3334,803.45951 c 0,-1.03062 -2.1,-4.38738 -4.6667,-7.45948 -6.5525,-7.84286 -6.0397,-1.19545 0.54,7 2.2583,2.81285 4.1267,3.02089 4.1267,0.45948 z m 201.8574,-64.2352 c 2.1123,-5.50476 -0.2445,-15.65339 -3.967,-17.08184 -1.3546,-0.51983 -1.595,0.88993 -1.0672,6.25998 0.9561,9.72748 1.714,12.93091 3.0596,12.93091 0.6409,0 1.5294,-0.94907 1.9746,-2.10905 z m 6.6801,-8.38689 c -0.7306,-1.65811 -1.1587,-1.22613 -1.8132,1.82927 -0.4712,2.2 -0.5664,5.2 -0.2116,6.66667 0.513,2.12023 0.8846,1.74539 1.8132,-1.82927 0.6424,-2.47276 0.7376,-5.47276 0.2116,-6.66667 z m -17.8708,4.57463 c 0,-0.32339 -0.6,-0.9588 -1.3334,-1.41203 -0.7333,-0.45322 -1.3333,-0.18863 -1.3333,0.58798 0,0.77661 0.6,1.41202 1.3333,1.41202 0.7334,0 1.3334,-0.26459 1.3334,-0.58797 z m -4.2406,-4.97426 c -0.2344,-1.59255 -1.239,-3.16354 -2.2327,-3.49108 -1.3338,-0.43968 -1.5552,0.1964 -0.8461,2.43059 0.7683,2.42071 0.5381,2.86404 -1.1507,2.21598 -1.1612,-0.44557 -2.4658,-0.23633 -2.8992,0.46498 -0.4373,0.70746 1.0689,1.2751 3.3833,1.2751 3.5233,0 4.1052,-0.44993 3.7454,-2.89557 z m 6.4847,-2.68777 c -0.4256,-1.06364 -0.7415,-0.7477 -0.8055,0.80556 -0.058,1.40556 0.2572,2.19306 0.7003,1.75 0.443,-0.44306 0.4904,-1.59306 0.1052,-2.55556 z m -29.9108,-10.93939 c 1.2833,-0.97419 2.3333,-2.02442 2.3333,-2.33386 0,-0.30943 -3.3178,-0.61056 -7.3729,-0.66917 -7.0931,-0.10253 -7.2829,-0.0153 -5,2.29701 2.8276,2.86409 6.8263,3.14529 10.0396,0.70602 z m 26.8,-1.7217 c 1.2588,-1.25883 -7.0765,-4.61476 -8.8064,-3.5456 -0.866,0.53524 -0.4632,1.54698 1.0593,2.66022 2.6498,1.93757 6.28,2.35246 7.7471,0.88538 z M 2676.0001,1068 c -1.4737,-0.9523 -0.5965,-1.2925 3.3333,-1.2925 3.9298,0 4.807,0.3402 3.3333,1.2925 -1.1,0.7109 -2.6,1.2925 -3.3333,1.2925 -0.7333,0 -2.2333,-0.5816 -3.3333,-1.2925 z m -248.7215,-1.422 c -0.4834,-0.7821 -0.5929,-1.708 -0.2434,-2.0575 0.3495,-0.3495 0.9907,0.2904 1.425,1.422 0.9016,2.3495 0.1331,2.7628 -1.1816,0.6355 z m 260.7215,-8.4669 c 0,-1.0388 -0.75,-2.1567 -1.6667,-2.4841 -0.9694,-0.3462 -1.1719,-1.0899 -0.4841,-1.7778 0.6878,-0.6878 1.4315,-0.4853 1.7778,0.4842 0.3387,0.9483 2.846,1.6666 5.8174,1.6666 3.7531,0 5.2222,0.5627 5.2222,2 0,1.4445 -1.4814,2 -5.3333,2 -3.7124,0 -5.3333,-0.574 -5.3333,-1.8889 z m -264.033,-4.1979 c -1.5958,-4.1972 -1.6057,-4.5798 -0.1184,-4.5798 0.6501,0 1.4462,1.8 1.7691,4 0.7196,4.9031 0.079,5.1283 -1.6507,0.5798 z m 23.5995,-11.6386 c -2.6949,-4.2128 -4.8999,-7.9171 -4.8999,-8.2318 0,-0.3146 -1.5719,-2.253 -3.4931,-4.3074 -6.481,-6.9306 -10.0737,-12.2788 -9.199,-13.6942 1.0728,-1.7358 12.6921,9.5955 12.6921,12.3776 0,1.0794 0.8359,2.2834 1.8575,2.6754 2.2258,0.8541 9.19,15.0968 8.457,17.2956 -0.2831,0.8495 -2.7197,-1.9024 -5.4146,-6.1152 z m 9.7668,1.6467 c 0,-0.7766 0.6,-1.0412 1.3333,-0.5879 0.7334,0.4532 1.3334,1.0886 1.3334,1.412 0,0.3234 -0.6,0.588 -1.3334,0.588 -0.7333,0 -1.3333,-0.6354 -1.3333,-1.4121 z m 128,-13.114 c -4.6274,-1.2669 -5.4756,-9.2932 -1.2573,-11.8983 4.2263,-2.6102 8.1937,1.3215 7.6553,7.5865 -0.4345,5.0561 -1.3717,5.6878 -6.398,4.3118 z m -10.6667,-17.5541 c -1.8333,-1.4781 -5.5833,-3.6299 -8.3333,-4.7818 -5.3284,-2.2318 -5.8699,-3.0681 -3.5128,-5.4253 1.4334,-1.4333 5.825,1.1836 17.1795,10.2369 3.0546,2.4355 3.1103,2.6577 0.6666,2.6577 -1.4666,0 -4.1666,-1.2093 -6,-2.6875 z" id="path1" />
  </g>
</svg>
